<?xml version="1.0" encoding="UTF-8"?>
<svg version="1.1" viewBox="0 0 2048 1622" width="183" height="145" xmlns="http://www.w3.org/2000/svg">
<path transform="translate(998,44)" d="m0 0h11l15 4 15 8 23 15 24 16 12 9 18 14 16 13 14 12 10 8 18 12 13 10 15 12 15 11 16 13 17 13 16 13 16 12 16 13 19 13 16 13 10 9 10 8 42 36 14 11 26 22 14 12 10 9 15 14 13 11 11 9 15 13 13 11 12 11 13 11 18 13 14 11 10 9 8 7 26 26 8 7 15 13 14 12 15 13 15 14 8 7 11 10 11 9 10 10 7 8 13 12 8 7 12 11 23 23 7 8 13 13 7 4 7-1 6-1 24-1 17 1 16 5 10 5 12 9 8 11 6 13 4 14 2 21v10l-1 3-2 1-32 1-6 3 2 5-1 9-3 8-7 5-13 5-2 1 2 4 13 13 7 8 10 9 11 14 8 13 7 15 4 13 2 11 1 18-1 15-4 15-8 16-8 11-9 8-12 6-13 4-9 2-9 1h-19l-16-2-16-5-13-8-7-6-9-13-5-12-4-16-2-21v-15l4-1h50l7 2 1 2 1 22 2 12 4 8 7 6h7l8-4 5-6 2-8v-22l-4-17-7-14-10-13-10-10v-2l-4-2-12-11-8-5-11 1-20 4-19 7-10 3-2 4-1 7-1 67-3 16-6 15-7 11-8 9-10 7-16 6-13 3-8 1h-27l-17-3-12-5-10-6-8-7-8-11-6-12-5-17-2-10-1-39-1-5h-20l-1 14v11l-1 17-3 16-6 16-9 13-7 7-14 8-13 4-22 2-41 1h-49l-1-1v-80l-4 1-2 4-3 1h-89l-9-2-3 18-4 14-6 15-7 11-9 10-9 6-13 5-14 3h-35l-18-3-12-5-11-8-7-7-9-14-5-15-4-19-1-2h-3l-1 2-4 1v-4l-75-2-7-3-2-2h-5l-1 5-2 24 85 1 2 2-1 26-1 15-3 2h-144l-1-1-1-73-1-3-5 1h-10l-15-1-1 22-1 54-2 1h-60l-3-4-11-37-6-20-6-12-6-7-8-2-4 4-3 9-2 29-1 39-2 1h-53l-3-2-1-70-1-15-1-4-8-3-8-1-4 1-4 26-5 23-6 15-7 11-9 10-10 7-16 6-16 3h-27l-15-2-10-3-15-8-11-10-9-14-5-12-4-15-2-13-2-24-2-8-9-1-2 4-6 8-4 3-5-1v-2l-5-2-4-5v-2l2-1h11l2 1v-2l9 1v-2h-25l-5-3-16-1-55-1-1 106-1 1-15 1h-46l-2-12-1-37v-49l-1-23-5-2-19-3-8-5-6-5-3-1 3 18 4 33 12 80-1 5-1 1h-32l-27-1-2-3-6-52-1-4-27-1-14-1-6 39-2 20-3 3h-21l-36-1-1-3 7-39 14-91 5-34 1-12-6-2-10-5-13-12-7-8-2-5 1-21 3-10 8-10 14-15 16-13 8-7 16-22 12-11 13-12 12-13 22-18 12-11 6-7 8-7 10-10 14-11 19-19 8-7 15-13 24-24 7-8 14-13 8-7 10-9 11-10 1-2h2l2-4 14-14 11-9 10-9 8-7 7-8h2v-2l5-5 15-14 9-7 3-3h2v-2l27-27 6-7h2v-2l8-7 13-11 11-9 17-14 12-11 6-5 1-2h2l1-3 8-7 7-7 11-9 13-12 10-9 7-7 14-11 30-27 22-18 10-9 11-9 13-12 17-17 11-9 13-11 13-10 15-12 13-10 14-11 10-8 14-11 13-10 20-14 15-10 11-7zm891 776m-1628 51-2 3-7 31-2 10v8l6 2 9 1h13l1-1v-9l-4-20-7-23-2-2zm1420 33-5 3-1 7-2 1v2l-7-1-13-1-3 7v46l5 14 5 5 3 2h10l8-7 5-10 1-9v-24l-1-31-1-3zm-8 5m-1136 19m1 2m-12 2m4 0 1 3 1-3zm5 1m-7 1m104 0-4 4-2 6v25l3 10 6 7 6 3 8-1 8-5 4-6 2-9v-14l-2-16-5-4zm832 0-4 1-1 17v27l4 4 4 1h11l8-2 5-4 5-11v-32l-1-1zm-70 5-1 4h2l1 2v-6zm-460 7-2 2h13v-1zm276 10-5 2-2 8-4 1 2-5-1-4-9 2-4 3v7l2 5 1 6 5 6 5 3 9-1 7-4 4-8 2-12v-6l-7-3z" fill="#E2B58B"/>
<path transform="translate(1034,678)" d="m0 0 5 1 4 5 2 5 2 2 15 2h34v-6l-4-6 6 1 6 4 7 8v2l4 2 3 1 2-5 2-1h10l3-2 7-1h21l9 4 3 3 10 1 12-1h16l24 4 10 4 16 11 9 7 7 1 3 1 21 2 8 3h14l12 1 2 2 16-1 10 2 10-1 6-2 2-4 7-5 4-2 2-3 3-1h76l25 1 13 2 16 7 12 9 8 9 6 9 3 11 1 7 1 122 2 30v22l-1 17-3 16-6 16-9 13-7 7-14 8-13 4-22 2-41 1h-49l-1-1v-80l-4 1-2 4-3 1h-89l-9-2-3 18-4 14-6 15-7 11-9 10-9 6-13 5-14 3h-35l-18-3-12-5-11-8-7-7-9-14-5-15-4-19-1-2h-3l-1 2-4 1v-4l-75-2-7-3-2-2h-5l-1 5-2 24 85 1 2 2-1 26-1 15-3 2h-144l-1-1-1-73-1-3-5 1h-10l-15-1-1 22-1 54-2 1h-60l-3-4-11-37-6-20-6-12-6-7-8-2-4 4-3 9-2 29-1 39-2 1h-53l-3-2-1-70-1-15-1-4-8-3 3-1 1-18v-52l-1-5 1-3-2-8v-7l1-9 1-7 1-15 1-5v-8l1-13 2-48 1-1 1-16 1-2 3-1 71-1 10-3 4-3 10-1 19 6v2l28-1 14-2 9 2 1 2 3-1 4-10 5-4 8-1 10 2 5 2 3 8 7 1 2-4 3-1v-3l4-4-1-4-7 1-5-1-1-5 6-8 2 1v6l1 1h40l9-2 1-6 5-4zm430 256-4 1-1 17v27l4 4 4 1h11l8-2 5-4 5-11v-32l-1-1zm-70 5-1 4h2l1 2v-6zm-460 7-2 2h13v-1zm276 10-5 2-2 8-4 1 2-5-1-4-9 2-4 3v7l2 5 1 6 5 6 5 3 9-1 7-4 4-8 2-12v-6l-7-3z" fill="#AE8A6F"/>
<path transform="translate(900,140)" d="m0 0h13l4 4h6l5-2 10 1 5 3v12l-4 10-3 12v11l1 7-2 20-8 11-4 6-1 8 1 10-1 16-1 3v13h-2l-1 7-9 10-8 14-2 6v19l-5 6-4 11-6 11-3 8-4 2-3 15-2 2-3 7-5 6-4 13-3 7-1 11-6 11-5 6-3 7-1 4h-2l-2 4-9 20-3 9-1 1-1 9-5 5-10 8-6 7h-2l-2 4-5 8-9 14-9 11-7 11-18 24-8 7-6 5-3 5 1 5 3 3 9 1 13-2h14l8 1 33 1h27l21 2h25l6-2h21l9 1h9l8-4 25-5h14l11 4 7 2 8 3 2 2-1 4-9 4-34 3-20-1-13-3-26-2h-8l-10-3-17 3-26 3-32 3-18 1-37 4-16 1-17 2-11 2-54 8-65 6-30 2-25 1-58 9-32 4-18 3-23 3-18 4-18 6-21 6-7 3-16 4-9 3-3 2-3 5-3 3 9 57 5 27 4 30 5 31 4 18 3 14 5 40 12 80-1 5-1 1h-32l-27-1-2-3-6-52-1-4-27-1-14-1-6 39-2 20-3 3h-21l-36-1-1-3 7-39 14-91 5-34 1-12-6-2-10-5-13-12-7-8-2-5 1-21 3-10 8-10 14-15 16-13 8-7 16-22 12-11 13-12 12-13 22-18 12-11 6-7 8-7 10-10 14-11 19-19 8-7 15-13 24-24 7-8 14-13 8-7 10-9 11-10 1-2h2l2-4 14-14 11-9 10-9 8-7 7-8h2v-2l5-5 15-14 9-7 3-3h2v-2l27-27 6-7h2v-2l8-7 13-11 11-9 17-14 12-11 6-5 1-2h2l1-3 8-7 7-7 11-9 13-12 10-9 7-7 14-11 30-27 22-18 10-9 9-7v3 5l15 1 7-3 8-5 4-1v-2l9-3 2-6 4-2 7-9 6-8 10-5 9-8 4-5 7-3 5-3 6-5zm-639 731-2 3-7 31-2 10v8l6 2 9 1h13l1-1v-9l-4-20-7-23-2-2z" fill="#F1D1B6"/>
<path transform="translate(906,649)" d="m0 0h13l20 1 20 2h23l16-1-2 4-16 21-5 6-1 2h-3l-2 4-3 4v4l5 1h7l2 4-3 4h-2v3l-5 5h-7l-3-9-5-1-11-2-7 1-5 4-4 10h-4v-2l-12-1-11 2h-28v-2l-10-2-9-3-10 1-4 3-10 3-71 1h-3l-1 18-1 1-2 53-1 16-1 11-1 14-2 12v7l2 8-1 6 1 4v51l-2 16h-11l-4 1-4 26-5 23-6 15-7 11-9 10-10 7-16 6-16 3h-27l-15-2-10-3-15-8-11-10-9-14-5-12-4-15-2-13-2-24-2-8-9-1-2 4-6 8-4 3-5-1v-2l-5-2-4-5v-2l2-1h11l2 1v-2l9 1v-2h-25l-5-3-16-1-55-1-1 106-1 1-15 1h-46l-2-12-1-37v-49l-1-23-5-2-19-3-8-5-6-5-4-1-3-10-6-36-4-26-2-14-7-41-5-32v-6l3-3 36-12 23-7 17-5 19-6 29-4 26-3 32-6 19-3 17-3 8-1 62-3 46-5 23-2 29-4 30-2 44-2 30-2 35-1 23-1h8l10-1zm-369 279m1 2m-12 2m4 0 1 3 1-3zm5 1m-7 1m104 0-4 4-2 6v25l3 10 6 7 6 3 8-1 8-5 4-6 2-9v-14l-2-16-5-4z" fill="#553A29"/>
<path transform="translate(809,716)" d="m0 0h19l4 4 6 19 7 27 5 21 8 26 9 26 3 5-1-16-1-10-1-101h54l3 1 1 2 1 224 1 9-1 20-1 54-2 1h-60l-3-4-11-37-6-20-6-12-6-7-8-2-4 4-3 9-2 29-1 39-2 1h-53l-3-2-1-70-1-18 1-20 1-54 1-145 1-2z" fill="#FCFCFB"/>
<path transform="translate(1399,716)" d="m0 0h76l25 1 13 2 16 7 12 9 8 9 6 9 3 11 1 7 1 122 2 30v22l-1 17-3 16-6 16-9 13-7 7-14 8-13 4-22 2-41 1h-49l-1-1v-80h-2l-1-5h2l1-146 1-80zm65 218-4 1-1 17v27l4 4 4 1h11l8-2 5-4 5-11v-32l-1-1z" fill="#FCFCFB"/>
<path transform="translate(629,710)" d="m0 0h32l11 1 16 6 10 7 10 9 9 14 6 13 3 15 1 14v160h2l-1 11-5 23-6 15-7 11-9 10-10 7-16 6-16 3h-27l-15-2-10-3-15-8-11-10-9-14-5-12-4-15-2-13-2-26 1-5 1-35 1-112 1-12 6-16 6-11 11-13 10-8h2v-2l16-5 7-2zm3 224-4 4-2 6v25l3 10 6 7 6 3 8-1 8-5 4-6 2-9v-14l-2-16-5-4z" fill="#FCFCFB"/>
<path transform="translate(1650,710)" d="m0 0h31l17 2 14 4 12 7 9 8 7 11 6 12 3 11 2 22 1 94 1 12-1 7-1 67-3 16-6 15-7 11-8 9-10 7-16 6-13 3-8 1h-27l-17-3-12-5-10-6-8-7-8-11-6-12-5-17-2-10-1-39-1-5v-14l4-120 2-21 4-11 5-12 7-11 9-9 8-6 14-4zm31 194-5 3-1 7-2 1v2l-7-1-13-1-3 7v46l5 14 5 5 3 2h10l8-7 5-10 1-9v-24l-1-31-1-3z" fill="#FCFCFB"/>
<path transform="translate(1134,640)" d="m0 0h8l12 3 16 5h20l26 2 22 1 28 1 16 2h17l12-2 6-2h6l3 2 22 5 15 1 27 2 16 1 8-1 2-4h5l11 8 12 2 26 2 25 1h10l41 4 13 1 42 7 18 4 7 3 5 1 3 1 12 2 12 4 5 4 7 4 8 3 16 2 12 3 12 5 11 6 11 1 12-6h11l6 3 2 4 8 2 1 2 11 3 7-5-2 4-7 11-8 17-4 11v23l3 17 6 20 10 18 11 16 5 7v2l-28 6-19 7-10 3-3 3-1-11-1-94-2-22-5-16-7-12-7-9-8-6-12-6-11-3-17-2h-31l-19 3-10 4-10 8-7 8-6 10-6 14-3 14-1 14-4 120-1 13-20 1v3h-2l-2-30-1-122-3-15-3-6-10-13-10-8-14-7-9-3-9-1-25-1h-76l-3 1-3 4-9 5-5 5-4 2-10 1-10-2h-7l-9 1-2-2-17-1h-9l-8-3-21-2-9-2-5-3-13-10-12-7-11-3-19-3h-17l-16 1-7-2-2-3-8-3h-21l-9 2-5 1h-6l-2 1-2 5-4-2-5-5-7-8-6-3-6-2-9-11-9-14 1-2 4-1 8-3h14l19-2 7-3h3v-2z" fill="#956F57"/>
<path transform="translate(1111,1157)" d="m0 0h33l19 3 12 5 9 7 11 11 8 14 5 14 2 11v184l-2 19-4 15-7 14-11 12-11 7-13 5-20 4h-29l-16-3-13-5-12-7-9-8-9-14-5-14-3-13-1-12-1-30v-65l1-87 4-16 6-14 7-11 9-10 11-8 12-5zm14 45-6 4-6 7-4 11 1 191 3 12 4 6 3 3 9 1 9-3 6-7 2-8 1-191-2-11-5-10-5-4-2-1z" fill="#FDFDFD"/>
<path transform="translate(737,1157)" d="m0 0h29l14 2 13 4 10 6 10 9 8 10 7 14 4 14 1 7v182l-2 20-4 14-7 14-9 11-13 9-18 6-16 3h-28l-17-3-16-6-12-9-8-9-8-15-5-17-2-14-1-57 1-116 2-19 4-15 8-16 8-10 10-8 15-7 13-3zm11 45-8 4-4 5-3 9-1 13v180l2 10 4 9 6 4 9 1 8-4 6-8 2-7v-197l-7-14-5-4z" fill="#FDFDFD"/>
<path transform="translate(238,712)" d="m0 0 17 1 41 1 3 3 1 3 9 6 9 56 5 27 4 30 5 31 4 18 3 14 5 40 12 80-1 5-1 1h-32l-27-1-2-3-6-52-1-4-27-1-14-1-6 39-2 20-3 3h-21l-36-1-1-3 7-39 14-91 5-34 1-12-6-2-10-5-13-12-7-8-2-5 1-21 3-10 8-10 14-15 16-13 8-7 16-22zm23 159-2 3-7 31-2 10v8l6 2 9 1h13l1-1v-9l-4-20-7-23-2-2z" fill="#FCFCFC"/>
<path transform="translate(927,1157)" d="m0 0h32l17 3 12 5 11 8 11 12 8 16 4 13 1 5 1 22v18l-2 4h-60l-1-39-2-9-4-6-8-5-6-1-10 6-3 6-1 5-1 16v169l2 18 3 9 10 4 6-1 8-6 5-10 1-22v-52l-24-1-1-1v-41l1-1 22-1h63l2 5v102l-2 18-5 16-6 11-9 11-8 7-10 5-17 5-13 2h-26l-17-3-15-6-11-8-10-11-8-16-4-14-2-15v-177l2-16 5-15 8-15 8-10 10-8 14-7 12-3z" fill="#FDFDFD"/>
<path transform="translate(1856,709)" d="m0 0 22 1 16 5 10 5 12 9 8 11 6 13 4 14 2 21v10l-1 3-2 1-32 1-6 3 2 5-1 9-3 8-7 5-13 5-2 1 2 4 13 13 7 8 10 9 11 14 8 13 7 15 4 13 2 11 1 18-1 15-4 15-8 16-8 11-9 8-12 6-13 4-9 2-9 1h-19l-16-2-16-5-13-8-7-6-9-13-5-12-4-16-2-21v-15l4-1h50l7 2 1 2 1 22 2 12 4 8 7 6h7l8-4 5-6 2-8v-22l-4-17-7-14-10-13-10-10v-2l-4-2-12-11-8-5-3-1-16-24-6-10-5-9-7-25-2-12v-23l6-16 10-19 11-12 5-4h3v-2l11-5 9-1 6-1z" fill="#FCFCFC"/>
<path transform="translate(387,716)" d="m0 0h85l20 2 16 7 9 6 11 11 5 8v2h2l5 17 2 18v39l-2 16-5 20-8 14-6 7-13 8-17 6-4 1-42 3v23l-1 102-1 1-15 1h-46l-2-12-1-37v-49l-1-30 1-147 1-33 3-3z" fill="#FCFCFB"/>
<path transform="translate(1476,1157)" d="m0 0h28l17 3 11 4 11 7 6 5 9 12 6 13 4 18 2 14v13l-3 3-26 1h-30l-3-1-1-5v-18l-2-8-5-10-5-4-5-1-8 4-4 5-4 15v13l4 15 7 12 7 9 41 41 9 11 9 12 7 12 7 18 4 18 1 9v10l-2 14-4 15-8 15-7 10-8 8-12 6-18 5-13 2h-22l-16-2-16-5-11-7-7-6-8-11-5-12-5-21-2-17v-15l2-2h58l2 9 1 22 4 12 4 6 4 3h8l8-5 4-6 3-11v-16l-3-15-5-13-12-16-46-46-10-13-8-14-6-16-3-12-1-8v-18l3-16 5-15 5-10 8-10 12-9 13-6 12-3z" fill="#FDFDFD"/>
<path transform="translate(1199,710)" d="m0 0h13l17 1 13 3 12 6 13 12 7 9 5 11 6 20 2 11v16l-3 2h-55l-3-5-3-20-6-16-2-3-13 1-6 5-2 7-3 1v19l4 17 5 10 8 10 9 10 36 36 11 14 6 10 8 16 6 17 4 25-1 10-4 17-7 17-7 11-9 10-9 6-13 5-14 3h-35l-18-3-12-5-11-8-7-7-9-14-5-15-4-19-1-3h2v-20l1-1 11-1h48l2 2 2 23v7l2 5 1 6 4 5 5 3 9-1 5-3h2l2-5 2-7 1-14-2-1v-21l-4-11-7-11-13-15-31-31-7-8-9-11-12-21-6-20-2-10v-25l5-18 8-16 9-10 8-7 16-8 16-4z" fill="#FCFCFB"/>
<path transform="translate(1055,715)" d="m0 0h50l2 2v33l-1 9-2 2h-80v82l57 1 7 1 2 2 1 17v18l-2 5-4 1-62 1 2 64-1 5-2 24 85 1 2 2-1 26-1 15-3 2h-144l-1-1-1-73-1-4 1-7 1-149 1-72 1-6z" fill="#FCFBFB"/>
<path transform="translate(1244,1163)" d="m0 0h144l2 2v22l-1 19-1 1-82 1v83h34l33 1v43l-1 1h-66v95l82 1 2 2v39l-3 2-64 1h-55l-25-1-2-6v-215l1-88z" fill="#FDFDFD"/>
<path transform="translate(506,1163)" d="m0 0h143l2 1v23l-1 19-1 1h-79l1 67v20h41l23 1v36l-2 7-2 1h-61l1 135-1 1h-63l-2-4v-307z" fill="#FDFDFD"/>
<path transform="translate(96,715)" d="m0 0h58l4 2 1 15v203l-1 34-3 20-4 9-6 10-6 7-14 9-13 4-14 2-13 1h-22l-10-2-3-4-1-25-1-15h11l15 1 12-3 5-5 2-17 1-215 1-30z" fill="#FDFDFD"/>
<path transform="translate(1134,640)" d="m0 0h8l12 3 16 5h20l26 2 22 1 28 1 16 2h17l12-2 6-2h6l3 2 22 5 15 1 27 2 16 1 8-1 2-4h5l11 8 12 2 26 2 25 1h10l41 4 13 1 42 7 18 4 7 3 5 1 3 1 12 2 12 4 5 4 7 4 8 3 16 2 12 3 12 5 11 6 11 1 12-6h11l6 3 2 4 8 2 1 2 11 3 7-5-2 4-7 11-8 17-4 11v23l3 17 6 20 10 18 11 16 5 7v2l-28 6-19 7-10 3-3 3-1-11-1-94-2-22-5-16-7-12-7-9-8-6-12-6-11-3-17-2h-38l-5-3-34-13-12-2-11-1-9-3h-17l-6 4-7 1h-36l-17 2h-13l-20-4h-19l-26-3-16-6-21-3-8-1h-12l-24-3h-23l-12-1-8 1h-10l-17-4h-14l-16 2-11 1-13-1-7-2-17-3h-17l-22-5-9 1-21 3h-10l-10 2-1 6-5 1-12-17-3-5 1-2 4-1 8-3h14l19-2 7-3h3v-2z" fill="#AE8A6F"/>
<path transform="translate(906,649)" d="m0 0h13l20 1 20 2h23l16-1-2 4-10 13-7-1-18-1h-121l-60 1-62 2-30 3-25 4-18 1-21 4-25 3-21 1-34 1-11 2-13 1-20 4-43 5-27 3-20 4-1 2h-4v2l-16 4 4 1 86 1 10 2v1l-17-1h-85l-5 2-1 1-1 33-1 147-1 6-24-4-8-5-6-5-4-1-3-10-6-36-4-26-2-14-7-41-5-32v-6l3-3 36-12 23-7 17-5 19-6 29-4 26-3 32-6 19-3 17-3 8-1 62-3 46-5 23-2 29-4 30-2 44-2 30-2 35-1 23-1h8l10-1z" fill="#744837"/>
<path transform="translate(1029,680)" d="m0 0h8l2 4 3 1 1 7 12 2 38 1 3 2v2h8l3 1 2 7 1-3 6 2-1 6h-2l-2 7-3-1-4-4-10-3-7 3-84 1-29 1h-13l-1 78-1 149-1 7-6 2h-10l-16-1-1-7-1-226-57-1 1 9 1 92 2 19v8l-4-4-4-11-9-26-7-25-11-44-5-15v-2l-3-1h-71l-1 147-1 54-1 20-10-4 3-1 1-18v-52l-1-5 1-3-2-8v-7l1-9 1-7 1-15 1-5v-8l1-13 2-48 1-1 1-16 1-2 3-1 71-1 10-3 4-3 10-1 19 6v2l28-1 14-2 9 2 1 2 3-1 4-10 5-4 8-1 10 2 5 2 3 8 7 1 2-4 3-1v-3l4-4-1-4-7 1-5-1-1-5 6-8 2 1v6l1 1h40l9-2 1-6zm-95 266-2 2h13v-1z" fill="#AE8A6F"/>
<path transform="translate(906,649)" d="m0 0h13l20 1 20 2h23l16-1-2 4-10 13-7-1-18-1h-121l-60 1-62 2-30 3-25 4-18 1-21 4-25 3-21 1-34 1-11 2-13 1-20 4-43 5-27 3-20 4-1 2h-4v2l-16 4 4 1 86 1 10 2v1l-17-1h-89l1-3-8 1-10 2-9 3-42 10-2 1v20h-1l-3-19v-6l3-3 36-12 23-7 17-5 19-6 29-4 26-3 32-6 19-3 17-3 8-1 62-3 46-5 23-2 29-4 30-2 44-2 30-2 35-1 23-1h8l10-1z" fill="#AE8A6F"/>
<path transform="translate(840,665)" d="m0 0h121l19 1 5 1-1 4-9 11-1 2h-3l-2 4-3 4v4l5 1h7l2 4-3 4h-2v3l-5 5h-7l-3-9-5-1-11-2-7 1-5 4-4 10h-4v-2l-12-1-11 2h-28v-2l-10-2-9-3-10 1-4 3-10 3-62 1-9-1v-1h5l1-2 8 1 5-2 14-2 13-4 7-4h2l2-4 3-1v-2l9-4 17-5 18-2 28-1 28-5 8-2-1-2-9-1-16-1-19 1h-110l-49 1-28 3-15 5-20 2-19 1-3 1-11 1-11 2-25 2-47 1-38 4-50 7-26 4-1 1-13 1h-11l4-1 1-3 27-5 48-5 15-2 20-4 18-2 6-1 42-1 29-3 19-3 13-2 16-1 32-5 25-2 60-2z" fill="#734736"/>
<path transform="translate(708,628)" d="m0 0h9l5 3 2 2v6h-2l-2 4-5 3-13 4-10 2-16 2-11 2-17 2-63 5-14 1-23 1h-11l-22 5-13 1-11 2-17 2-34 3-28 6-30 7-16 5-6 2-17 4-11 3-9 4-12 2-3 2v3l2 1-1 8h-3l-7-5-1-5-43-1-16-1 2-4 15-14 1 4h10l17-1 19-4 16-3 16-4 7-3 18-6 10-4h13l25-3 17-6 15-4h19l25-7 15-2 22-2 3-1 16-1 29-4 14 2 6 3h8l10-3 6-2 21-2 9-2 24-3 11-2 17-5z" fill="#F9DDC5"/>
<path transform="translate(576,736)" d="m0 0 3 2-5 6-7 15-3 9-1 12-1 112-1 35-1 5-3-6-9-1-2 4-6 8-4 3-5-1v-2l-5-2-4-5v-2l2-1h11l2 1v-2l9 1v-2h-25l-5-3-16-1-41-1-14-1-1-2v-16l1-1 42-3 16-5 12-6 8-6 7-11 4-7 5-20 2-16v-39l-2-18-1-8 4 2 2 2 10 1 5-2 1-5 1-3h2v-2l2-1v-3h2l2-7 4-6zm-39 192m1 2m-12 2m4 0 1 3 1-3z" fill="#B8324F"/>
<path transform="translate(1562,693)" d="m0 0h10l6 2 16 1 19 4 16 6-1 3-9 3-3 4-1 4-3 5-8 9-6 10-6 14-3 14-1 14-2 59-1 4-2 45-1 12h-9l-1 2-4 2-2 2-3-7-1-8-1-93-1-28-3-18v-6l2-6 1-18-1-1v-5h-2l-2-5v-8l-4-5 1-5 6-5z" fill="#B8304E"/>
<path transform="translate(1460,762)" d="m0 0h20l9 3 5 5 2 5v156l-1 3h-34l-1-3v-30l-1-41v-97z" fill="#AE8A6F"/>
<path transform="translate(641,755)" d="m0 0h8l6 3 5 8 2 6 1 7v49l-1 103-1 7-5-3h-24l-5 5v-164l2-10 4-6 5-4z" fill="#835841"/>
<path transform="translate(734,710)" d="m0 0 6 1 11 6 4 1v16l-1 1-2 53-1 16-1 11-1 14-2 12v7l2 8-1 6 1 4v51l-2 16h-11l-4 1-2 13-1 2h-2l-1-160-2-20-3-12-9-17-8-10-11-9-7-4 2-1v-2l4-1h25l6-2z" fill="#845841"/>
<path transform="translate(1664,756)" d="m0 0h9l10 9 4 7v59l-1 68-1 6-7 1-1 5-2 4h-2v2l-4 1-17-3-1-1-1-9v-129l5-14 6-5z" fill="#AE8A6F"/>
<path transform="translate(1029,680)" d="m0 0h8l2 4 3 1 1 7 12 2 38 1 3 2v2h8l3 1 2 7 1-3 6 2-1 6h-2l-2 7-3-1-4-4-10-3-7 3-84 1-29 1h-14l-1 56-2 3v-2l-5-2-5 1-11 2-4 3-4 9-2-1-1-68 3-2 4-10 5-4 8-1 10 2 5 2 3 8 7 1 2-4 3-1v-3l4-4-1-4-7 1-5-1-1-5 6-8 2 1v6l1 1h40l9-2 1-6z" fill="#956F57"/>
<path transform="translate(1160,1091)" d="m0 0h10l13 4 10 5 3 4-1 5-5 10-9 11-9 8-11 2h-23l-12-1-3-1-5-5-4-2h-7l-4 1-5 9-2 2h-15l-15-9-4-5v-7l4-7 12-13 8-6 11-3h22l16 5 12 7 5-2 5-10z" fill="#FDFDFD"/>
<path transform="translate(380,713)" d="m0 0 4 1-2 5-1 1-2 30-1 99h-1l-1-17-5-8-16-24-4-5-3-2v-2h-2v-2l-3-1-4-4-11-5-9-3-2-7v7h-1l-3-20-1-14v-11l6-3 26-6 21-5 7-2z" fill="#85202B"/>
<path transform="translate(1058,644)" d="m0 0 7 1 4 4v3h2l12 18 8 10 6 7v6l-1 1h-34l-15-2-4-4-3-7-3-2-6 1-6 4-2 6-9 3h-40l-2-2v-6l6-8 9-11 9-12 8-7 46-1z" fill="#FCFBFA"/>
<path transform="translate(848,707)" d="m0 0h6l19 6v2l28-1 14-2 9 2 1 3-58-1 1 10 1 92 2 19v8l-4-4-4-11-9-26-7-25-11-44-5-15v-2l-3-1h-71l-1 147-1 54-1 20-10-4 3-1 1-18v-52l-1-5 1-3-2-8v-7l1-9 1-7 1-15 1-5v-8l1-13 2-48 1-1 1-16 1-2 3-1 71-1 10-3 4-3z" fill="#9F795F"/>
<path transform="translate(218,746)" d="m0 0h3v10l-3 23-10 51-5 18-6-2-10-5-13-12-7-8-2-5 1-21 3-10 8-10 14-15 9-7 14-5z" fill="#835840"/>
<path transform="translate(975,677)" d="m0 0 2 2-3 5h-3l-2 4-3 4v4l5 1h7l2 4-3 4h-2v3l-5 5h-7l-3-9-5-1-11-2-7 1-5 4-4 10h-4v-2l-12-1-11 2h-28v-2l-10-2-9-3-10 1-4 3-10 3h-23l2-4 5-5 9-4 8-4 10-2 10-4h8l5-1 5 1h11l20-3 23-6 7-1 2-1 14-1h12l8-1 5-1z" fill="#82563F"/>
<path transform="translate(576,736)" d="m0 0 3 2-5 6-7 15-4 10-1 1-1 55-2 31-2 16v11l-1 7v14l-1 2v14l-1 3-3-1-3-6v-2h-2l-3-7-4-2-2-9v-6h-2l-2-4-8 2 2-14 7-12 5-20 2-16v-39l-2-18-1-8 4 2 2 2 10 1 5-2 1-5 1-3h2v-2l2-1v-3h2l2-7 4-6z" fill="#835740"/>
<path transform="translate(1562,693)" d="m0 0h10l6 2 16 1 19 4 16 6-1 3-9 3-3 4-1 4-3 5-8 9-6 10-6 14-4 16h-2l-1 3-10 3-2-1v-2h-2l-3-9 1-4 1-6 1-12 1-4-2-2-6-17-2-5-6 1-1-5v-5l-4-5 1-5 6-5z" fill="#85202B"/>
<path transform="translate(448,761)" d="m0 0h16l6 3 5 6 2 5 2 18 1 22v20l-2 9-5 5-7 5-6 1h-14l-2-25v-67z" fill="#B82F4E"/>
<path transform="translate(1853,758)" d="m0 0h7l5 4 4 8 7 24 4 6 4 3 10 1 3 7-1 9-3 8-7 5-13 5-4 1-10-9-11-15-5-11-4-13v-16l6-11 6-5z" fill="#E1B48B"/>
<path transform="translate(843,662)" d="m0 0h94l51 1-1 4-2 1-6-1-18-1h-121l-60 1-62 2-30 3-25 4-18 1-21 4-25 3-21 1-34 1-11 2-13 1-20 4-43 5-27 3-20 4-1 2h-4v2l-16 4 4 1 86 1 10 2v1l-17-1h-89l1-3-8 1-10 2-9 3-42 10-2 1v20h-1l-2-14v-10l6-3 25-6 31-7 16-5 25-5 26-5 27-2 22-3 22-4 18-4 11-2 44-2h9l19-2 21-3 47-5 24-3 72-3z" fill="#956F57"/>
<path transform="translate(840,665)" d="m0 0h121l19 1 5 1-1 4-4 4-4-2-1-2-5-1-40-1h-58l-57 1h-33l-22 1-44 1-17 1-11 3-6 1-11 2-31 3-8 2-41 4-35 1-16 1-14 1-25 4-7 2-33 4-22 4-9 1-1 1-13 1h-11l4-1 1-3 27-5 48-5 15-2 20-4 18-2 6-1 42-1 29-3 19-3 13-2 16-1 32-5 25-2 60-2z" fill="#81553E"/>
<path transform="translate(378,740)" d="m0 0h1l-1 109h-1l-1-17-5-8-16-24-4-5-3-2v-2h-2v-2l-3-1-1-5 1-6-1-5 3-3h5l2-5 5-5 4 1v-2l4-2h3l2-4h3v-3h3z" fill="#B92F4E"/>
<path transform="translate(641,760)" d="m0 0 7 1 3 3 3 1v6l-2 6 1 14-2 16-1 7-5 12-3 7-4 4-1 7-2 3-2 15-3 6h-2v-65l1-33h2v-3l4-3h2v-2z" fill="#744837"/>
<path transform="translate(562,769)" d="m0 0h1l-1 123-1 35-1 5-3-6-9-1-2 4-6 8-4 3-5-1v-2l-5-2-4-5v-2l2-1h11l2 1v-2l9 1v-2h-25l-5-3-16-1v-1l10-1v-2l5-5 5-16 4-8 7-3 4 2v3h2l1 6 1 9 4 1 2 2 1 6h2l4 8 2 1v-17l1-5v-16l1-4v-11l2-14 2-31 1-55zm-25 159m1 2m-12 2m4 0 1 3 1-3z" fill="#956F57"/>
<path transform="translate(734,710)" d="m0 0 6 1 11 6 4 1v2h-5l-1 4-6 3h-2l-1 4-2 3h-5l-2-2-9-1 4 4 3 7 5 6 1 4-3 1 2 5v26l-4 1v-2h-2l-2-13-8-19-6-11-8-10-11-9-7-4 2-1v-2l4-1h25l6-2z" fill="#744937"/>
<path transform="translate(603,374)" d="m0 0 2 1-1 3 3 3-3 5-5 6-9 6-2 5-5 5-7 8-5 5h-3l-1 3h-2l-1 4-3 2-6 1-1 3-1 4-7 9-5 5-5 6-7 6-3 4-4 1-3 7-4 1v2h-7l-6 1v-7l1-2 4-2 2-8 4-6 9-7 3-4 5-1 5-4 4-4 3-2 1-4 7-3 2-5 7-4 3-3 5-1v-7l5-5 5-3 4-3 9-2 2-4 2-3 6-1 1-3-1-5z" fill="#E2B58B"/>
<path transform="translate(865,717)" d="m0 0h2l1 9 1 92 2 19v8l-4-4-4-11-9-26-5-17 1-11 1-2 1-9 1-6 3-14 2-13 1-7 3-6z" fill="#AE8A6F"/>
<path transform="translate(200,778)" d="m0 0h6l2 5v4h2v2l3-1 2-2-1 8h-2l1 2v8l-5 26-1 4h-2l-1-8-6-1-2 4-6 2-5-3-2-2-4-2-2-5-2-10 4-12 6-7 4-7 4-3z" fill="#744837"/>
<path transform="translate(1493,888)" d="m0 0h2l1 13v30l-1 3h-34v-9l3-9 6-10 10-11z" fill="#B82F4E"/>
<path transform="translate(812,860)" d="m0 0 4 4 7 24 8 31 5 28v5l-7-5-6-1-4 4-3 4-2-27-1-21z" fill="#AF8A6F"/>
<path transform="translate(448,761)" d="m0 0h16l6 3 5 6 2 5v9l-5-3-2-1-2 2-4-1v-2h-3l-2 10-2 4-3-2-2-5-1-10-5-6 2 8h-2v27l2 33 1 10v4h3l1-2 1 2h7l2-3v-3l5-1 1-7 4-8 3 3 2-1v-39h1l1 22v20l-2 9-5 5-7 5-6 1h-14l-2-25v-67z" fill="#855841"/>
<path transform="translate(576,736)" d="m0 0 3 2-5 6-7 15-4 10-1 1-2 25-1 17-2 7-4 1-2-1-2 7-1 5-2 8-3 1-1-1v-6l2-5 2-21 1-9 1-11-6-16v-3h-2l-1-7 5 4 10 1 5-2 1-5 1-3h2v-2l2-1v-3h2l2-7 4-6z" fill="#754937"/>
<path transform="translate(379,732)" d="m0 0h1l-1 168-1 6-24-4-8-5-6-5-4-1-3-10-6-36-1-11 2 1 1 9 1 1 2 13 2 7-1 5 6 2 1 4-1 2h2l3 3 6 4 15 2 3-1 8 3 1-1 1-138z" fill="#865A43"/>
<path transform="translate(218,746)" d="m0 0h3v10l-3 23h-1l-1-7h-14l-1 2-11 4-6 2-6 3h-2l-1 5-4 4-3 10v7l1 4 2 12-4-4-2-5 1-21 3-10 8-10 14-15 9-7 14-5z" fill="#AF8A6F"/>
<path transform="translate(753,735)" d="m0 0h1v179l-1 23-9-3 3-1 1-18v-52l-1-5 1-3-2-8v-7l1-9 1-7 1-15 1-5v-8l1-13z" fill="#956F57"/>
<path transform="translate(1051,629)" d="m0 0 7 1 2 4h2l-2 9 3 1-3 1-10 2-46 1-6 5 2-5 5-4h2l2-5 5-3 18-2 10-4z" fill="#F1D1B6"/>
<path transform="translate(1559,783)" d="m0 0 2 3 1 18 1 93 2 12 1 2 3-3h3l1-3 9 1v-12l2-45h1v26l-1 31-1 13-20 1v3h-2l-2-30z" fill="#C59E7D"/>
<path transform="translate(782,669)" d="m0 0h47l1 2-21 1h-37l-49 1-28 3-15 5-20 2-19 1-3 1-11 1-11 2-25 2-47 1-38 4h-5l4-2 21-3 23-2h18l24-1 41-4 10-2 29-3 11-2 8-2 12-2 14-1 48-1z" fill="#744837"/>
<path transform="translate(1562,693)" d="m0 0h10l6 2 16 1 19 4 16 6-1 3-9 3h-3l-5-3v-2h-3v-2h-7l-16-3-18-2-6 1 1 13-1 4-5 1-1-5v-5l-4-5 1-5 6-5z" fill="#81553E"/>
<path transform="translate(562,769)" d="m0 0h1l-1 123-1 35-1 5-3-6-6-1 3-5v-14l1-5v-16l1-4v-11l2-14 2-31 1-55z" fill="#9E785F"/>
<path transform="translate(511,888)" d="m0 0h2l-1 4 1 2-5 2h-2l-4 4-7 1h-3l-8 2-6 2-11 2-4 1-11 1-3 1v4h-2l1 3 4 2h-7l-1-2v-16l1-1 42-3 16-5z" fill="#977059"/>
<path transform="translate(445,762)" d="m0 0 3 1-2 1v6l2 8h-2v27l2 33 1 10v4h3l1-2 1 2h7l2-3v-3l5-1 1-7 4-8 3 3 2-1v-39h1l1 22v20l-2 9-5 5-7 5-6 1h-14l-2-25v-67z" fill="#9B755D"/>
<path transform="translate(660,769)" d="m0 0 2 3 1 7v49l-1 103-1 7-2-2v-33l-1-20v-21l-1-3v-11l2-13 1-24z" fill="#956F57"/>
<path transform="translate(409,704)" d="m0 0m-7 1h7v2h-4v2l-16 4 4 1 86 1 10 2v1l-17-1h-89l1-3-8 1-10 2-9 3-42 10-2 1v20h-1l-2-14v-7l6-4 23-5 40-10 7-3z" fill="#A0795E"/>
<path transform="translate(1392,940)" d="m0 0 2 2v6l-3 3-1 2-3 1h-89l-9-2v-2l6-1v2h57l23-1 4-2 1-3-5-1v-1z" fill="#E2B68C"/>
<path transform="translate(259,824)" d="m0 0h2l4 9 4 29v14l-3-4h-5l-2 2z" fill="#8F654C"/>
<path transform="translate(218,764)" d="m0 0h1v9l-1 6h-1l-1-7h-14l-1 2-11 4-6 2-6 3h-2l-1 5-4 4-3 10v7l1 4 2 12-4-4-2-5 1-21 3-10 4-5 11-7 10-1 6-3 12-3z" fill="#977158"/>
<path transform="translate(1584,849)" d="m0 0h1v26l-1 31-1 13-21 1-1-23h2l2 12 1 2 3-3h3l1-3 9 1v-12z" fill="#AA856A"/>
<path transform="translate(538,761)" d="m0 0 2 3v4h2l4 11 3 9-1 16-2 13-1 11-3 9-1 5h-1l1-16v-39l-2-18z" fill="#946B52"/>
<path transform="translate(379,732)" d="m0 0h1l-1 168-1 6-24-4-8-5 2-1 16 3 10 1 2 1 1-13 1-138z" fill="#AF896E"/>
<path transform="translate(448,761)" d="m0 0h16l6 3 2 2-1 4-2 1-2-1v3l-3 1-7 1-3 2-3-5-6-4 1-5h2z" fill="#794D3B"/>
<path transform="translate(1496,808)" d="m0 0 2 1v117l-1 7-2 1v-34z" fill="#EECBAC"/>
<path transform="translate(445,762)" d="m0 0 3 1-2 1v6l2 8h-2v27l2 33 1 10v4h3l1-2 1 2 9 1-3 2h-14l-2-25v-67z" fill="#9A745B"/>
<path transform="translate(1649,779)" d="m0 0h1l1 126 1 9 1 3-2 3-2-12-1-17v-69z" fill="#F0CEAF"/>
<path transform="translate(660,769)" d="m0 0 2 3 1 7v49l-1 103h-1l-1-120z" fill="#A9856A"/>
<path transform="translate(474,898)" d="m0 0h9v1l-17 4-6 2-4-1-3 1-2 5h-2v4h-2l1 3 4 2h-7l-1-2v-16l1-1z" fill="#B08B70"/>
<path transform="translate(1074,961)" d="m0 0h37l-2 3h-31l1 4-3-1v-3l-4 1-1 2h-5l-4-2v3h-7l-2-2h2l-2-2-4-1 1 5h-2v-4l-4-1v-1zm-17 3 1 3 1-3z" fill="#ECC8A8"/>
<path transform="translate(1566,696)" d="m0 0 23 3 24 4 5 3v7l-7-4v-2h-3v-2h-7l-16-3-18-2-6 1v9l-3-4-1-6 3-3z" fill="#744837"/>
<path transform="translate(546,925)" d="m0 0h2l-2 4-6 8-4 3-5-1v-2l-5-2-4-5v-2l2-1h11l2 1v-2l9 1zm-9 3m1 2m-12 2m4 0 1 3 1-3z" fill="#B28D71"/>
<path transform="translate(363,715)" d="m0 0 4 1-2 2-50 12-2 1v20h-1l-2-14v-7l6-4 23-5z" fill="#B92F4E"/>
<path transform="translate(1573,905)" d="m0 0 9 1v7l-1 4-12 1-4-5 1-2 3-3h3z" fill="#956F57"/>
<path transform="translate(377,888)" d="m0 0h1v18l-24-4-8-5 2-1 16 3 10 1 2 1z" fill="#9A745B"/>
<path transform="translate(453,700)" d="m0 0h8v1l-22 4-9 1-1 1-13 1h-11l4-2 32-5z" fill="#744837"/>
<path transform="translate(624,709)" d="m0 0h49l10 5-2 1-9-3-11-1h-32l-8 1-7 2-6 1 4-4z" fill="#A57F65"/>
<path transform="translate(1527,715)" d="m0 0h4v2l7 1 4 4-2 6-1-2h-5l-3-3v-2l-6-1z" fill="#AE8A6F"/>
<path transform="translate(218,736)" d="m0 0h1l1 9h2v8h-1v-7l-14 5-6 2 5-5 10-9z" fill="#F7DAC1"/>
<path transform="translate(1034,678)" d="m0 0 5 1 4 5 2 5 2 2 15 2 30 1v1h-37l-12-3-2-7-4-4-6-1z" fill="#AE8A6F"/>
<path transform="translate(445,762)" d="m0 0 3 1-2 1v6l2 8h-2v24l-1 28h-1v-67z" fill="#A98469"/>
<path transform="translate(474,898)" d="m0 0h9v1l-14 2-18 1-5 1v10l2 4 4 2h-7l-1-2v-16l1-1z" fill="#EAC3A1"/>
<path transform="translate(1052,644)" d="m0 0h6v1l-8 2-46 1-6 5 2-5 7-3h42z" fill="#FAE0C9"/>
<path transform="translate(511,727)" d="m0 0 6 1 8 3 5 5v4l-4 1-11-11z" fill="#7C513E"/>
<path transform="translate(1674,908)" d="m0 0 3 1-2 6h-2v2l-4 1-15-3v-1l12-2z" fill="#C49E7F"/>
<path transform="translate(409,702)" d="m0 0m-4 1h4v2l-23 4-11 4-7 2 1-3 16-5z" fill="#956F57"/>
<path transform="translate(729,919)" d="m0 0 2 4 2 9-2 6-1 9-2 2v-22z" fill="#7E533F"/>
<path transform="translate(647,706)" d="m0 0 13 1 8 1v1l-44 1-8 1 3-2 4-1 18-1z" fill="#7C513D"/>
<path transform="translate(1292,949)" d="m0 0h3v2l28 1 1 2h-26l-9-2v-2z" fill="#E8C19D"/>
<path transform="translate(1098,619)" d="m0 0 6 1v2l5 2v4l-4 1-5-2-3-5z" fill="#F1D1B6"/>
<path transform="translate(912,712)" d="m0 0 10 1 3 3-2 1-22-1 1-2z" fill="#956F57"/>
<path transform="translate(867,828)" d="m0 0h3l1 17-4-4-2-6z" fill="#DCB087"/>
<path transform="translate(1853,758)" d="m0 0h7l5 4 1 4-6-5-6 1-10 5 2-4 5-4z" fill="#B48F72"/>
<path transform="translate(1620,710)" d="m0 0 4 1-1 2 3 1v2l-5 2-5 4h-2l1-7z" fill="#B53950"/>
<path transform="translate(166,795)" d="m0 0h1l1 14 1 4 2 12-4-4-2-5z" fill="#9E795F"/>
<path transform="translate(641,755)" d="m0 0h8l6 3 2 4-7-3-11-1-5 4-2 3-2-1 6-7z" fill="#B0896C"/>
<path transform="translate(1056,963)" d="m0 0h15v4h-5l-4-2v3h-7l-2-2zm1 1 1 3 1-3z" fill="#E5BB95"/>
<path transform="translate(576,736)" d="m0 0 3 2-5 6-3 6-3-4 2-4 3-5z" fill="#7B503E"/>
<path transform="translate(485,716)" d="m0 0h9l9 3 3 3v2l-21-7z" fill="#845A46"/>
<path transform="translate(614,366)" d="m0 0h7l-2 4-7 1v2h-5l2-4z" fill="#E2B58B"/>
<path transform="translate(397,708)" d="m0 0h8l-4 2-12 3 4 2-9 1v-2l-3-1 8-3z" fill="#744837"/>
<path transform="translate(446,847)" d="m0 0h1v6l5-1 1-2 1 2 9 1-3 2h-14z" fill="#9F7960"/>
<path transform="translate(659,709)" d="m0 0h14l10 5-2 1-9-3-11-1z" fill="#9B735A"/>
<path transform="translate(531,436)" d="m0 0m-1 1m-1 1m-1 1m-1 1m-1 1m-1 1m-1 1 1 2-6 7-4 3h-2v-2l5-5z" fill="#F2D3B8"/>
<path transform="translate(1583,900)" d="m0 0h1l-1 19h-11v-1l9-1 1-16z" fill="#B59072"/>
<path transform="translate(213,742)" d="m0 0 2 1-2 5-10 5-2-1 11-9z" fill="#FAF3EC"/>
<path transform="translate(511,888)" d="m0 0h2l-1 4 1 2-5 2h-3l-2-4z" fill="#9D775D"/>
<path transform="translate(316,726)" d="m0 0m-1 1m-3 1h3v2l-2 1v20h-1l-2-14v-7z" fill="#AE5256"/>
<path transform="translate(1034,678)" d="m0 0 5 1 4 5 2 5 1 3h-3l-2-7-4-4-6-1z" fill="#B79174"/>
<path transform="translate(1123,942)" d="m0 0h1v18h-5l3-10z" fill="#E7BF9A"/>
<path transform="translate(1666,912)" d="m0 0 3 1-1 2 3 3-17-3v-1z" fill="#E7BF9B"/>
<path transform="translate(1201,959)" d="m0 0h4l-1 7-5 1 1-5z" fill="#E4B991"/>
<path transform="translate(527,931)" d="m0 0 4 1 1 1 5 1-1 2-7 1-4-3 1-2z" fill="#D4A983"/>
<path transform="translate(1727,725)" d="m0 0 4 2 7 8 2 3-1 4-7-11-5-4z" fill="#A47E63"/>
<path transform="translate(695,720)" d="m0 0 4 2 10 10-1 3-7-8-6-5z" fill="#6C4B37"/>
<path transform="translate(381,708)" d="m0 0h2l-1 3-14 4 1-3z" fill="#976B56"/>
<path transform="translate(945,947)" d="m0 0 11 2-4 3h-10v-1l5-1-2-1z" fill="#E2B58B"/>
<path transform="translate(1478,895)" d="m0 0 2 1-10 11-4 5 1-4 8-10z" fill="#956F57"/>
<path transform="translate(383,709)" d="m0 0m-1 1m-3 1h3v2l-10 3h-5l2-2z" fill="#80543E"/>
<path transform="translate(1261,725)" d="m0 0 4 2 6 7 1 3h-2l-7-8z" fill="#A67F63"/>
<path transform="translate(331,858)" d="m0 0 2 1 1 9-1 6-2-4z" fill="#8E644C"/>
<path transform="translate(1093,961)" d="m0 0h18l-2 3-16-2z" fill="#F1D1B6"/>
<path transform="translate(544,817)" d="m0 0 2 1-2 13-2 2 1-12z" fill="#865B44"/>
<path transform="translate(446,838)" d="m0 0h2l1 10-1 5h-1l-1-6z" fill="#956F57"/>
<path transform="translate(573,741)" d="m0 0 2 1-4 8-3-4z" fill="#845A45"/>
<path transform="translate(1715,717)" d="m0 0 5 1 6 4 1 4-11-7z" fill="#AC866A"/>
<path transform="translate(1042,962)" d="m0 0h1v6l-3-3z" fill="#EECBAE"/>
<path transform="translate(1080,965)" d="m0 0h3l-1 3-2-1z" fill="#ECC9A9"/>
<path transform="translate(1673,917)" d="m0 0 1 2-1 2h-2z" fill="#E4B991"/>
<path transform="translate(1805,878)" d="m0 0 2 1h-3z" fill="#F1D1B6"/>
<path transform="translate(1036,962)" d="m0 0 2 1z" fill="#F1D1B6"/>
<path transform="translate(1087,966)" d="m0 0" fill="#FADEC6"/>
</svg>
