<?xml version="1.0" encoding="UTF-8"?>
<svg version="1.1" viewBox="0 0 2428 1068" width="607" height="267" xmlns="http://www.w3.org/2000/svg">
<path transform="translate(1190,91)" d="m0 0h34l24 3 16 3 19 6 20 8 22 12 16 11 14 11 13 12 9 9 9 11 10 14 9 15 12 25 8 24 4 17 3 22v44l-2 16-3 16-7 23-9 22-10 18-8 12-10 13-9 10-7 8-13 12-17 13-18 11-17 9-21 8-20 6-21 4-11 1h-41l-19-2-23-5-18-6-18-8-21-11-19-13-14-12-8-7-7-8-9-10-13-18-12-21-9-20-4-10-7-25-3-19-1-16v-33l3-22 5-21 8-24 11-22 11-18 15-20h2l2-4 22-22 20-15 15-9 19-10 15-6 24-7 16-3z" fill="#FE130D"/>
<path transform="translate(1538,121)" d="m0 0h10l6 4 28 38 9 12 8 11 42 57 11 15 21 28 20 26 3 3 3 1v-36l-5-105v-39l2-6 1-1 27-2 41-2h32l4 2v60l-3 98-1 151-1 47-4 3-9 1h-62l-16-2-9-10-14-19-14-18-9-12-16-21-10-13-12-16-16-21-12-16-12-15-13-17-6-7v29l2 115v31l-1 8-4 3-90 1-8-1-3-3-1-3v-43l3-71 1-36v-42l-3-84-1-26v-45l4-4 47-4z" fill="#FEFEFE"/>
<path transform="translate(686,125)" d="m0 0h125l29 2 22 4 18 6 19 10 12 9 12 11 10 11 9 14 7 14 5 15 4 19 1 8v33l-4 26-5 17-7 16-9 16-9 11-8 9-16 12-16 8-14 5-17 4-19 2h-31l-23-1-16-1-4 2-1 2v17l4 47v8l-2 6-2 1h-41l-49-1-14-1-3-3-1-3v-71l1-67v-67l-1-43-4-76-1-21 2-5 3-2 18-2zm97 86-22 2-5 2-1 13v72l1 18 1 1 22 2h30l16-4 11-6 8-9 5-10 3-14v-19l-2-12-5-13-6-8-7-6-10-5-12-3-10-1z" fill="#FEFEFE"/>
<path transform="translate(1862,125)" d="m0 0h42l47 1h54l38-1h52l7 2 4 4 3 11 4 38 2 20v11l-2 5-1 1h-21l-29-2-24-1-38-2h-24l-9 2-2 13v10l3 14 2 4 7 3 60-1 43-2 9-1h12l6 2v16l-4 36-2 27-1 13-6 3-16-1-19-2-74-1-17 1-2 1-1 9v10l2 17 3 6 6 3 9 2 9 1h49l54-4h21l4 4 1 7-1 21-5 35-4 18-3 7-5 5-2 1-18-1-34-2-151-1-40-1-3-3-1-3v-39l4-85 1-31v-41l-2-68-3-73v-14l2-3z" fill="#FEFEFE"/>
<path transform="translate(383,118)" d="m0 0 31 2h32l26-1 5 5 5 8 15 36 17 43 18 46 19 49 22 57 17 45 14 38 9 26 1 8-2 4-6 3-11 1h-76l-13-2-4-2-4-7-8-29-3-9v-3h-109l-5 1-8 26-6 17-5 6-13 2h-72l-13-2-6-5 1-8 17-50 16-44 19-52 9-24 19-52 9-24 20-55 13-36 7-16zm47 136-5 12-13 37-10 33v6l7 2h44l3-2-1-11-9-34-14-41z" fill="#FEFEFE"/>
<path transform="translate(2294,114)" d="m0 0h9l5 5 13 29 13 28 6 12 1 8-4 3-31 1-12 4-10 6-6 7-3 8v11l4 11 9 15 13 16 8 10 14 18 9 14 7 16 4 14 1 9v18l-2 14-5 16-9 19-9 12-8 10-8 7-12 10-19 12-16 8-19 7-18 5-15 3-7-1-8-9-10-15-14-25-11-23-2-6v-6l3-3 34-9 17-6 12-7 8-9 4-9 1-5v-11l-3-10-6-11-8-10-9-10-9-11-11-12-9-14-6-13-4-13-2-11v-26l4-17 6-14 8-12 9-10 9-9 14-10 17-10 19-8 19-6z" fill="#FEFEFE"/>
<path transform="translate(110,125)" d="m0 0h97l7 2 1 1v243l-1 19-4 32-5 22-6 18-7 16-11 21-9 13-7 9-2 3h-2l-2 4-10 10h-2v2l-9 7-8 1-13-13-9-11-6-6v-2h-2l-13-13-11-9-13-13-1-6 4-6 12-11 9-8 9-13 5-11 5-18 3-27 1-21v-64l-1-49-2-47-4-51-2-18 3-5z" fill="#FEFEFE"/>
<path transform="translate(454,600)" d="m0 0h10l1 1-1 23-3 57-1 34v66l1 50 4 53-2 2-13 1h-51l-5-3-2-14h-3l-10 8-17 7-7 2-8 1h-21l-17-3-15-6-12-8-12-11-10-14-8-16-5-18-2-15v-19l3-20 7-21 8-14 9-11 9-9 14-9 12-5 14-3 7-1h16l12 2 13 5 13 9 4 3-1-27-1-46v-19l3-5 58-6zm-104 149-8 2-7 4-8 9-4 9-2 16 2 10 5 10 6 7 12 6h15l12-6 7-7 5-9 2-6v-17l-7-14-6-7-12-6-4-1z" fill="#FEFEFE"/>
<path transform="translate(1434,687)" d="m0 0h13l15 3 14 7 10 9 3 3v-10l3-9 24 2 46 5 4 3 1 8-1 47-1 4-1 99-3 18-6 18-8 14-9 10-9 7-15 7-13 4-15 3-13 1h-26l-25-3-24-5-15-5-5-3-3-5 2-14 7-28 4-6 5 1 21 8 16 4 7 1h20l14-4 11-6 6-7 3-13-11 6-12 5-15 3-13 1-17-2-18-6-10-6-9-7-7-7-9-12-7-14-5-16-2-15v-16l3-18 5-15 6-11 8-11 10-10 14-9 14-5zm25 59-9 2-8 6-7 9-3 8-1 11 2 9 4 8 6 7 9 5 3 1h14l10-5 3-2v-2h2l6-9 2-7v-16l-4-10-9-10-8-4-4-1z" fill="#FEFEFE"/>
<path transform="translate(1225,685)" d="m0 0h16l16 2 15 4 16 8 9 6 12 11 9 11 9 17 5 16 3 19v17l-4 24-6 16-6 11-6 8-12 13-13 9-15 7-14 4-20 3h-13l-19-3-16-5-17-9-14-12-10-12-8-13-5-12-4-17-1-9v-19l3-20 6-18 6-12 8-11 10-11 11-8 16-8 13-4zm4 65-11 4-8 7-6 10-2 7-1 11 2 11 4 9 7 8 5 4 8 3h13l9-4 8-7 5-8 3-9v-18l-5-12-7-9-10-6-4-1z" fill="#FEFEFE"/>
<path transform="translate(585,685)" d="m0 0h16l16 2 15 4 16 8 9 6 12 11 9 11 9 17 5 16 3 19v17l-4 24-6 16-7 13-12 14-10 9-14 8-15 6-20 4-7 1h-14l-19-3-18-6-15-8-14-12-11-13-8-14-6-17-3-20v-18l3-20 6-18 5-10 9-13 10-11 11-8 16-8 13-4zm4 65-11 4-8 7-6 10-2 7-1 11 2 11 4 9 9 10 7 4 4 1h13l9-4 8-7 5-8 3-9v-18l-5-12-7-9-10-6-4-1z" fill="#FEFEFE"/>
<path transform="translate(1690,685)" d="m0 0h15l20 3 16 5 15 8 11 9 9 9 9 13 7 15 4 13 3 21v14l-3 20-5 17-8 15-6 8-12 13-13 9-15 7-14 4-20 3h-13l-19-3-16-5-17-9-14-12-11-13-8-14-6-17-3-20v-17l3-21 6-18 5-10 9-13 10-11 14-10 15-7 15-4zm3 65-11 4-8 7-6 10-2 7-1 11 2 11 4 9 7 8 5 4 8 3h13l9-4 8-7 5-7 3-10v-18l-4-10-6-9-8-6-8-3z" fill="#FEFEFE"/>
<path transform="translate(1916,683)" d="m0 0h12l19 3 13 5 11 6 16 13 10 12 8 13 6 15 4 20v13l-4 13-5 5-4 2-34 4-57 5-16 1-2 1 4 6 7 6 13 5 5 1h21l17-5 17-9 5-3 5 2 10 15 11 23 1 5-3 5-6 7-14 9-15 6-12 3-17 2h-27l-19-3-18-6-14-8-10-8-6-5-11-14-9-17-5-18-2-14v-19l3-19 4-15 8-16 7-11 11-12 12-9 15-8 17-5zm-5 55-9 3-6 5-4 6-4 13v5l1 1h17l30-3 5-2-1-9-5-9-7-6-10-4z" fill="#FEFEFE"/>
<path transform="translate(1088,594)" d="m0 0h12l4 3 5 25 5 24-2 6-11 3-15 3-6 3-3 7-2 15v13l33-1 6 3 1 5v54l-2 6-1 1h-31l-3-1 1 27 1 41 2 35v14l-3 5-3 1-14 1h-47l-9-2-3-4-1-5v-111l-20-1-2-6-2-22v-28l3-6 3-2 15-1-1-11v-20l3-20 4-12 7-11 10-10 14-9 12-5 21-5z" fill="#FEFEFE"/>
<path transform="translate(807,677)" d="m0 0h9l6 5 11 17 10 18 2 5v7l-3 3h-18l-9 3-6 4-4 6-1 7 5 10 13 14 8 10 7 12 4 13 1 14-3 16-4 9-5 8-5 6-14 10-21 11-18 6-16 3-7-1-5-5-9-12-11-18-5-10-1-6 4-3 29-6 9-5 3-4v-10l-5-10-8-9-7-8-10-13-5-11-2-11v-9l4-16 6-12 12-13 14-10 16-8 16-5z" fill="#FEFEFE"/>
<path transform="translate(2123,677)" d="m0 0h9l6 5 11 17 10 18 2 5v7l-3 3h-18l-9 3-6 4-4 6-1 7 5 10 13 14 8 10 8 14 3 11 1 6v8l-3 16-4 9-6 9-4 5-14 10-21 11-18 6-16 3-7-1-5-5-9-12-11-18-5-10-1-5 4-4 29-6 9-5 3-4v-10l-5-10-8-9-7-8-10-13-5-11-2-12v-8l4-16 5-10 8-10 10-9 16-10 14-6 11-3z" fill="#FEFEFE"/>
<path transform="translate(1670,610)" d="m0 0 11 1 15 6 10 5 4 1h10l11-6 10-6 6 2 8 7 11 14 5 9-1 5-9 10-12 9-12 6-12 3h-13l-8-3-18-10-7-2-6 1-13 9-4 3-6-2-10-8-6-5-9-11-1-2v-7l7-9 10-7 14-8 10-4z" fill="#FEFEFE"/>
<path transform="translate(1190,91)" d="m0 0h34l19 2v1l-36 1h-25l-11-1v-1z" fill="#FF5153"/>
</svg>
