<?xml version="1.0" encoding="UTF-8"?>
<svg version="1.1" viewBox="0 0 1716 1226" width="1716" height="1226" xmlns="http://www.w3.org/2000/svg">
<path transform="translate(779,10)" d="m0 0h135l38 7 34 9 29 10 24 10 25 12 19 10 23 14 20 14 16 12 13 11 14 12 31 31 9 11 8 9 10 13 13 18 14 22 13 23 13 26 10 24 10 28 8 28 6 27 5 31 3 33v53l-3 33-6 36-7 30-9 29-11 29-11 24-11 22-9 15 1 6 4 11 2 19 10 15 36 55 18 27 1 1 1-4v-13l-4-11-7-10-10-10-8-7-9-9-9-13-5-13-1-6v-16l3-12 4-8 6-7 8-5 10-3h20l12 4 8 6 6 9 4 14v18h-26l-1-15-3-7-4-3h-11l-4 2-3 6v15l4 10 9 11 17 16 9 9 9 14 4 13 1 8v11l-3 14-5 10-5 5 1 3 10 6 9 14 7 7 7 8 9 9 7 8 9 9 7 8 9 9 7 8 9 9 7 8 9 9 7 8 10 10 7 8 9 9 7 8 10 10 7 8 13 13 7 8 11 11v2h2v2h2l7 8 7 7v2l3 1 7 8 5 5v2h2l7 8 5 5v2h2l7 8 16 16 17 12 19 14 10 7 19 14 14 10 1 2h-1689l5-5 18-13 11-8 36-26 12-9 20-20 1-2h2l2-4 9-9 1-2h2l2-4 9-9 2-3h2l2-4 11-11 1-2h2v-2h2l2-4 15-15 7-8 13-13 7-8 10-10 7-8 9-9 7-8 10-10 7-8 9-9 7-8 9-9 7-8 9-9 7-8 9-9 7-8 9-9 7-8 7-10 4-6 10-6 6-7 11-17 36-55 1-91h28l1 45 10-15 3-5-2-6-8-13-10-18-12-24-10-24-10-28-8-28-6-27-5-31-3-33v-53l3-33 6-36 7-30 9-29 11-29 11-24 11-22 13-22 14-21 11-15 11-14 12-14 11-12 26-26 11-9 9-8 13-10 18-13 22-14 23-13 26-13 24-10 28-10 28-8 27-6z" fill="#FBFDFD"/>
<path transform="translate(779,10)" d="m0 0h135l38 7 34 9 29 10 24 10 25 12 19 10 23 14 20 14 16 12 13 11 14 12 31 31 9 11 8 9 10 13 13 18 14 22 13 23 13 26 10 24 10 28 8 28 6 27 5 31 3 33v53l-3 33-6 36-7 30-9 29-11 29-11 24-11 22-9 15 1 6 4 11 1 6v108l-3 12-4 8-6 7-10 6-14 3h-10l-10-2-9-4-8-7-4-5-4-10-2-11v-103l3-14 5-10 7-7 9-5 8-2h20l-21-32-17-26-23-35-15-23-21-32-13-20-10-21-13-30-18-41-16-37-22-50-1-2h-385l-10 22-18 41-15 35-16 36-13 30-9 19-12 18-21 32-17 26-21 32-17 26-21 32-17 26-3-3-9-15-10-18-12-24-10-24-10-28-8-28-6-27-5-31-3-33v-53l3-33 6-36 7-30 9-29 11-29 11-24 11-22 13-22 14-21 11-15 11-14 12-14 11-12 26-26 11-9 9-8 13-10 18-13 22-14 23-13 26-13 24-10 28-10 28-8 27-6z" fill="#FA4D2D"/>
<path transform="translate(1007,1085)" d="m0 0 2 1-1 2 5-2 1 2 1-1 2 2v4h3l-4 8 4-1 5 1 4 3 6 2v2h3l-2-6 1-3 6-3v-2h3v2l5-1-2 4h-6l6 1 2 2 2-3 1 1h5v2l3 1-1-3 4-2 1 13 4 13 6 8 5 4 9 4 13 2 13-1 11-4 6-4 6-7 4-8 2-6h2v-3l2 1-1 2 7-1 2-1v2h3l-1-2h3v-2l-2-1 6-1v-2l3 1 1-1 1-3-4 1-1-3 6-1v3h2l-1 6h3l2 2 2-6 7 1-2 3h-2v3l-2 1-1 3 3-1 1 3h-2l1 2 3-4 2 3 2-1v2h2l1-2-1-3 3-2 2 2 3-1v5h4l-2-5 3-1v-2l5 1 2-4h3v2l-2 1 1 5-6-2-1 2 1 4-1 3h2v2h5v2l5-1-2-4 5 2 4 1 3-3-2-4-1-3h-4v-2l2-1v-3l5 1v1l5 1v3l2-2-2-2-5-2 1-3v2l5-1 4 2 2-2 4 5-1 2 7-1-4 3-4 2h-7l-2 2 2 3v-2h3l2 4-3 1 7-1 4-3h2l1 2 2-1 2 2 3-1v-2h-6v-2l5-1h1l-1-3v-1l-2-2 2-3-2-1 6-1 2-2h2l1-3-4 1-1-3 6-1v3h2l-1 6 4 2 1 4-1 3 5-1 1-2h2l2-2v6l3-1v2h2l1-2-1-3h4l4-1-1 4 5 1-2-5 9-1-2-1v-2h-2v-4l6-3 5 1 2 1v2h-4l-2 3v3l1 3 3 1h1l3-2 2 2 3-1 2-2 7 2 1-5-7-1-1-4 2 2 4-1 4 2 2-2 2 4-2 2 4 2v3l6-2 2 1-1-3 6 2v-2l-2-1 2-3-2-1 6-1 2-2 1 3 2-6h-3l-1 2 1-5h4v3l2 1h-2l2 6 3 1v5l-6-2v2l6 1 9-1 1 1 3-2 3 3v2l11-1-2 8 2-6 3-1v3h2l1-5 2-1-1 4h2v-2l3 1 2-2 2 1-1-3 3-1 2 4h3l-1 6h3l1 1-1-5-2-5 2-2 2 1 2 5 2 2 4-1 1 1v-2l3-3h-9l2-1 1-2v2l3-1 2-2 3 3v2l6-2 3 2-2 4v2l2-1 1 4 2-3h2v-2h-2v-2h6l-3-4-3 2 1-4-2-1 2-3-2-1 6-1 2-2 1 3 2-6-4 1 1-4h4v3l2 1h-2l2 6 3 1v5l-6-2v2l4 2 8 2 7-2v2h4l1 4 5-1v-3l3 1-1 6 2-6 3-1v3h2l-2 4-1 1 8 1v-2l4-1 2 2 2 1v-2l2-1-5-5h-2l1-3 2 1-1-3 3-1 2 4h3l-1 6 5 1v2l4-1 2 1v-3l-3-1 2-3 4 2-2 1v2l4-2-2-4 3-3h-8l2-3v2l3-1 2-2 5 4-1-3 5-1v3l2 3-3 7h2l1-2 2 3 2-3h2v-2l-2-2h6l-3-4-3 2 1-4-2-1 2-3-2-1h6l-1-4 7 6 1 3 3 1 7 8 5 5v2h2l7 8 5 5v2h2l7 8 16 16 17 12 19 14 10 7 19 14 14 10 1 2h-1689l5-5 18-13 11-8 36-26 12-9 20-20 1-2h2l2-4 9-9 1-2h2l1-3 2 4-1 3h3v-3l-2-2 4-2h7l5 2 1 2h2v-2l4-3 1-5 4 2 1 2-3 3 8 1v-2l4-1 2 2 2 1v-2l2-1-5-5h-2l1-3 2 1-1-3 3-1 2 4h3l-1 6 4 1v-5l-3-3 1-6 5-1v-4l4 2 5-1 1 3v3l4 3-1-3 5-1v3h4l1 2 2-4-2-1 2-3-2-1 6-1 2-2 1 3 2-6-4 1 1-4h4v3l2 1h-2l2 6 3 1v5l-6-2-1 5 1-1h3 5l4 2 7-2v2h6l-1 4h2v-3l4-2 3 1-2 7 2-6 3-1v3h2l-2 4-1 1 8 1v-2l4-1 2 2 2 1v-2l2-1-5-5h-2l1-3 2 1-1-3 3-1 2 4h3l-1 6h3l1 1-1-5-2-5 1-4 5-1-4-2 1-3 1 2 4-1 4 2 3-1 1 3-5 3-1 2 3-1 2-2 3 3v2l6-2 2 1 1-3v2h3l1-2-2-1 2-3-2-1 6-1 2-2 1 3 2-6h-3l-1 2 1-5h4v3l2 1h-2l2 6 3 1v5l-6-2v2l4 2 7 1h2l1-2-2-1h3l1 1 3-4 4-1v2l3 1 3-1 1 2 1-2h5l-2 1 3 4-1 4h2l-2 4-1 1 3-1 3-2h2v2l4-1v2l4 1-1-2-2-1-2-4 4 1-4-2v-2h3l-1-3 3-1 2 2 3 1-1 7h3l2 1v2h2l1-2 3 2-3-4 2-3 4-1 3-3h-8l2-4v-2l-7-1-1-4 2 2 4-1 4 2 2-2 3 4 1 7 8-1-1-5 1 2 5 2v-2l-2-1 2-3-2-1 6-1 2-2h2l1-3h-3l-1 2-1-4 6-1v3l2 1h-2l2 6 3 1 1 4-1 3 5-1 1-2h2l2-2v3l3-1 4 3-2-3h4l2-1-2-2 4-4-2-4 8 4-2 5 4 1-1 2 1 4-1 3h2v3l5-1v2l5-1-2-4 5 2 4 1 3-3-2-4 1-4 7 1 1-3-7-3 1-3v2l5-1 4 2 2-2 4 5-1 2 7-1 2-1v2h2v2h3v-2l-2-1 2-3-2-1 6-1v-2h4l1-3-4 1-1-3 6-1v3h2l-1 6h3l2 2 3-1-1-5 7 1-2 3h-2v3l-2 1-1 3 5-1 2-2 1-4 5-1 3 2h-2l2 5 2-1-2-2 3-2-1-6 4 2 15-3 5 4 4 1 3 3h3l-3-2 1-3v2l7-2v3h2v-3l1-2h3l2-3 1 5 4 1 5 2v4l1 1 2-4-2-1h6v-3l4 2v34h28v-50h3v-2l4-2 1 2h3l-2 4 5 1-4 8 4-1 6 2 5 2 4 2v2h3l-2-6 1-3 6-3v-2h3v2l5-1-2 4h-6l6 1 2 3 1 5 1 2-1 2 7-1 1-1h-3l2-4v-3h3l5 17 5 9 8 7 9 4 14 2 12-1 10-3 9-6 6-8 4-11 2-12 3-2h3l4 1v3l1-4 4-1-1 4 2 4h-2l-1 4 4 1v3h2l4 11 6 8 10 6 14 3h10l13-3 10-6 6-8 4-10 2-14 5-3 1 1 4-6 3 1v6h-2l3 5-2 1-1 4h3v-2l-2-1h5l5 16 6 8 7 6 12 4 10 1 13-1 13-5 6-5 6-10 4-10 2-2v2l9-1v-2l-2-1h6v-3l4 1 1 7v28h74v-25h-47v-29z" fill="#95DFF2"/>
<path transform="translate(1078,715)" d="m0 0h49l12 3 9 5 7 8 4 9 2 10v105l-3 13-5 9-9 8-10 4-4 1h-52z" fill="#FA4D2D"/>
<path transform="translate(677,713)" d="m0 0h21l11 4 7 4 7 9 4 9 2 10v108l-3 12-4 8-6 7-10 6-14 3h-10l-16-4-8-6-7-8-4-10-2-11v-103l3-14 5-10 8-8 11-5z" fill="#FA4D2D"/>
<path transform="translate(908,963)" d="m0 0h20l10 3 8 5 7 7 5 11 2 10v106l-3 14-5 9-5 6-8 5-9 3-17 1-13-3-8-4-8-8-5-10-3-14v-103l3-14 5-10 7-7 9-5z" fill="#FA4D2D"/>
<path transform="translate(710,963)" d="m0 0h21l12 4 9 7 6 9 3 9 1 5v110l-3 13-6 10-8 7-9 4-11 2-16-1-11-4-6-4-7-8-4-8-2-8v-115l4-12 6-9 7-6 10-4z" fill="#FA4D2D"/>
<path transform="translate(747,715)" d="m0 0h35l5 18 21 82 1-100h25v175h-29l-15-57-12-47-5-19-1 123h-25z" fill="#FA4D2D"/>
<path transform="translate(472,715)" d="m0 0h37l2 8 27 166v1h-28l-3-17-2-17h-31l-3 24-2 10h-26l13-81 15-92z" fill="#FA4D2D"/>
<path transform="translate(551,715)" d="m0 0h48l12 3 8 5 7 7 5 12 1 5v40l-4 13-6 8-7 6-10 4-6 1h-21v71h-27z" fill="#FA4D2D"/>
<path transform="translate(809,963)" d="m0 0h21l12 4 9 7 6 10 3 10 1 7v20l-1 1h-25l-1-18-2-10-4-4-2-1h-11l-5 3-3 8v105l3 8 4 3 7 1 8-2 4-6 1-8 1-35h-14v-25h39l1 1v62l-3 15-6 11-8 7-9 4-11 2h-9l-14-3-10-6-7-9-4-11-1-4v-115l4-13 6-8 7-6 9-4z" fill="#FA4D2D"/>
<path transform="translate(971,713)" d="m0 0h21l11 4 6 4 7 8 4 10 2 12v12l-1 1h-25l-2-17-3-6-4-2h-10l-5 3-3 8v9l3 10 7 10 14 14 8 7 10 11 7 12 3 9 1 6v20l-3 12-6 10-8 7-9 4-10 2h-11l-13-3-8-5-7-7-5-11-2-10v-18h26l1 16 3 8 4 3h13l5-5 1-2v-18l-4-10-6-8-4-5-8-7-12-11-11-14-5-11-2-8v-22l4-13 6-8 7-6 9-4z" fill="#FA4D2D"/>
<path transform="translate(1306,713)" d="m0 0h20l12 4 8 6 6 9 4 14v18h-26l-1-15-3-7-4-3h-11l-4 2-3 6v15l4 10 9 11 17 16 9 9 9 14 4 13 1 8v11l-3 14-5 10-5 5-8 6-9 3-7 1h-10l-10-2-12-6-7-8-5-12-1-5v-21h26l1 19 3 6 4 2h12l5-4 2-6v-13l-4-11-7-10-10-10-8-7-9-9-9-13-5-13-1-6v-16l3-12 4-8 6-7 8-5z" fill="#FA4D2D"/>
<path transform="translate(1096,963)" d="m0 0h20l12 4 10 9 6 12 2 10v16h-26l-1-14-3-8-4-3h-11l-5 3-2 4-1 9 2 11 7 12 13 13 8 7 9 9 9 14 4 11 1 5v23l-3 10-5 9-7 7-11 5-10 2-16-1-10-3-8-6-6-7-4-10-2-16v-11h26l1 16 3 8 4 3 10 1 6-3 3-5 1-4v-10l-2-9-6-10-11-12-8-7-13-13-7-11-4-9-2-9v-19l4-13 6-9 7-6 9-4z" fill="#FA4D2D"/>
<path transform="translate(979,965)" d="m0 0h74v25h-47v46h37l1 1v24h-38v54h47v25h-74l-1-8v-166z" fill="#FA4D2D"/>
<path transform="translate(854,715)" d="m0 0h75v25h-47v46h37v25h-37v54h47v25h-75z" fill="#FA4D2D"/>
<path transform="translate(595,965)" d="m0 0h72v25h-45v49h36v24l-1 1h-35v76h-27z" fill="#FA4D2D"/>
<path transform="translate(403,715)" d="m0 0h28v142l-2 10-6 12-8 7-10 4-4 1h-21l-2-1v-25h14l7-3 3-6z" fill="#FA4D2D"/>
<path transform="translate(715,988)" d="m0 0h11l5 3 3 6 1 7v100l-3 9-5 4-7 1-8-2-4-4-2-6v-106l3-8z" fill="#F4FBFC"/>
<path transform="translate(913,988)" d="m0 0h10l5 3 3 4 1 3 1 67v34l-2 12-5 5-5 2-9-1-6-5-2-6v-107l3-7 3-3z" fill="#F3FAFC"/>
<path transform="translate(1214,738)" d="m0 0h11l6 5 2 5v109l-4 8-4 2h-12l-6-5-2-6v-107l3-7 3-3z" fill="#FEFEFE"/>
<path transform="translate(682,738)" d="m0 0h10l5 3 3 4 1 3v110l-4 7-4 2h-12l-6-5-2-6v-107l3-7 3-3z" fill="#FEFEFE"/>
<path transform="translate(1105,740)" d="m0 0h18l6 3 3 4 1 3v105l-3 6-3 3-3 1h-19z" fill="#FEFEFE"/>
<path transform="translate(578,740)" d="m0 0h17l6 3 3 5 1 4v30l-3 8-4 3-3 1h-17z" fill="#FEFEFE"/>
<path transform="translate(939,924)" d="m0 0 6 2 8 5-2 6-8 11-7 4-8 1-10-3-8-4h-7l-4 5-2 3-5-2-8-5 1-5 6-9 7-6 6-2 9 1 13 6h7l5-6z" fill="#FA4D2D"/>
<path transform="translate(878,675)" d="m0 0h27l10 13 10 14v1h-21l-12-12-7 6-5 6h-21l2-4 11-16z" fill="#FA4D2D"/>
<path transform="translate(1360,1098)" d="m0 0h4v3l2 1h-2l2 6 3 1v5l-6-2v2l6 1 9-1 1 1 3-2 3 3v2l11-1-2 7-1 3h-2v2l-3 1-1-2 1-2h-9l2-2-2-1-4 4-3-1v2l-7-1v-4l-5-1h-3l1-3-4-1-1 2h2v2l-5 5-1-5-1 2-2-1-1-1-1 5-2-2h-3l-1 1-1-2h-3l1-5h-3v4l1 3h-4-2v-2h-4-2l-4 1h-3-4v-2l-4 2-1 2-3-1 1-2 2-3-4 1 3-6h-2l-1-3h2l1-2h3l-2-1v-2h-2v-4l6-3 5 1 2 1v2h-4l-2 3v3l1 3 3 1h1l3-2 2 2 3-1 2-2 7 2 1-5-7-1-1-4 2 2 4-1 4 2 2-2 2 4-2 2 4 2v3l6-2 2 1-1-3 6 2v-2l-2-1 2-3-2-1 6-1 2-2 1 3 2-6h-3l-1 2z" fill="#A2E3F3"/>
<path transform="translate(489,746)" d="m0 0h1l12 84v2h-25l7-52z" fill="#FEFEFE"/>
<path transform="translate(1007,1085)" d="m0 0 2 1-1 2 5-2 1 2 1-1 2 2v4h3l-4 8 4-1 5 1 4 3 6 2v2h3l-2-6 1-3 6-3v-2h3v2l5-1-2 4h-6l6 1 2 2 2-3 1 1h5v2l3 1-1-3 4-2 1 16-3-1-3-3-1 3v-2l-5 1 1 5-1 23h-1v-25h-47v-29z" fill="#B6E9F5"/>
<path transform="translate(304,1098)" d="m0 0h4v3l2 1h-2l2 6 3 1v5l-6-2v2l4 2 7 1h2l1-2-2-1h3l1 1 3-4 4-1v2l3 1 3-1 1 2 1-2h5l-2 1 3 4h-2v2h-2v5l-7 6-2-2 1-2h-9l2-1-2-2-4 4-3-1v2l-7-1v-4l-5-1h-3l2-1v-3h-6v2h2v2l-5 5-1-5-1 2-2-1-1-1-1 5-2-2-2 3-3-1h2l-1-1-1-2h-3l1-5h-3l-1 3-1-3-2 1-1-7h-2l-1-3 5-1-4-2 1-3 1 2 4-1 4 2 3-1 1 3-5 3-1 2 3-1 2-2 3 3v2l6-2 2 1 1-3v2h3l1-2-2-1 2-3-2-1 6-1 2-2 1 3 2-6h-3l-1 2z" fill="#BBEAF6"/>
<path transform="translate(208,1098)" d="m0 0h4v3l2 1h-2l2 6 3 1v5l-6-2-1 5 1-1h3 5l4 2 7-2v2h6l1 6 2 5-3 1-2-3-7-1 2-2-3-1v2l-4 2-2-1v2l-4-1-2 3-1-7h-3l-1 2-4-4 1-2h-4l1 3-2 1 1 2h-3l-1 2-1-5-2 2v-3l-4 1-3 6 4 4-5-1-2-1v-3h2l-1-3h-4l1-5h-3l-1 3 2 1v3h-3l-2 4h-4v-5l2-1v-5l-3-3 1-6 5-1v-4l4 2 5-1 1 3v3l4 3-1-3 5-1v3h4l1 2 2-4-2-1 2-3-2-1 6-1 2-2 1 3 2-6-4 1z" fill="#F5FBFD"/>
<path transform="translate(728,1083)" d="m0 0 4 1 1 1 2-2v21l-3 9-5 4-7 1-8-2-4-4-2-6v-9l5-5h2l1-4h4v2h3v-2l4-2 1 2 1-1v-1z" fill="#E0F5FA"/>
<path transform="translate(628,1086)" d="m0 0 2 2h3l-2 4 5 1-4 8 4-1 6 2 5 2 4 2v2h3l-2-6 1-3 6-3v-2h3v2l5-1-2 4h-6l6 1 2 3 1 5 1 4 2 2-5 3h-6l-2 1-2-4-4-1-2 3-3-3h-1l-4 2-1-1-2 2-5-1-1 3-2-2-4 1-1-3h-2l2-6 3-2-7-4v-12h3v-2z" fill="#AFE7F5"/>
<path transform="translate(572,1099)" d="m0 0 2 4 4 2 5 2v2h-3l-1 4v-2l-5 1 5 4-8 1-3 1-1 2-3-1-1 2-3-6-4-2-1 3-2-1-2 3h-2l-2 3-2-2h2l-2-5-2 2-5-1-1 6-2-1v-4l-7 2-1-4 1-2-4-2 3-2-1-6 4 2 15-3 5 4 4 1 3 3h3l-3-2 1-3v2l7-2v3h2v-3l1-2h3z" fill="#ABE5F4"/>
<path transform="translate(815,1085)" d="m0 0 7 2-2 1 3 1 1-2v3l-2 1 2 1v4h-3l1 5-4 1 6 1-1-5 3-2 1 3 1-2 3 2h3l1 6-3 8-5 4-10 1-6-3-3-3-2-7v-12l4-5h3z" fill="#D8F3F9"/>
<path transform="translate(400,1098)" d="m0 0h4v3l2 1h-2l2 6 3 1 1 4-1 3 5-1 1-2h2l2-2v3l3-1 4 3-2-3h4l2-1-2-2 4-4-2-4 8 4-2 5h-2l2 6-5 1-2 1-1 6-3 1-4-1-2-2-1 2-5 1-4-1-4 1v-3h-4l-4-1 1-3-9-1v2l4-1 2 1v2l-4 3-2-3-1 2-2-1-1-5 2-3h2l-1-5 1 2 5 2v-2l-2-1 2-3-2-1 6-1 2-2h2l1-3h-3l-1 2-1-4z" fill="#B8E9F6"/>
<path transform="translate(1108,1086)" d="m0 0 2 2h3l-3 3 3 2h3v3l-4 5 4-1 3 2-2 10-6 5-7 1-8-2-4-5-1-6h3l1 1 1-8h-3l-1 2-1-4 5-5 4-3h2v2h3v-2z" fill="#D3F1F9"/>
<path transform="translate(1360,1098)" d="m0 0h4v3l2 1h-2l2 6 3 1v5l-6-2v2l6 1 9-1 1 1 3-2 3 3v2l11-1-2 7-1 3h-2v2l-3 1-1-2 1-2h-9l2-2-2-1-4 4-3-1v2l-7-1v-4l-5-1h-3l1-3-5-2 2-3-3-3 2-3-2-1 6-1 2-2 1 3 2-6h-3l-1 2z" fill="#B4E8F5"/>
<path transform="translate(349,1101)" d="m0 0 5 1 4 3 4 1 2 4h6v1h-7l8 3 8 1-1 3h-2l-1 3v-2h-3v4l1 3h-4-2v-2h-4l-2-1 1-7-2-1-1 3-2-4-1 3h-3v2l3-1 2 1-1 3-3-1v2l4 1v3l-5-2h-3v-2l-4 2-1 2-3-1 1-2 3-8 1-3-3-2h3l1-5 2-1-3-2z" fill="#C6EDF7"/>
<path transform="translate(922,1091)" d="m0 0 3 2v3h3v4l2-1v-3l3 3-2 12-5 5-5 2-9-1-6-5-2-6v-7h5l-3 3 4 2 2-2 5 1h3l-1-3 4-1v-3h-2z" fill="#A8E4F4"/>
<path transform="translate(445,1101)" d="m0 0 5 1 4 3h2v2l5 1v1l5 1-1 3h-5v2l2 2-1 1 2 2-5 4h-3l-5-3v2l2 1-3 1h-3v-2l-5 1v-3l-4 1 2-6-2-3h2l3-3v-2h-3v-4z" fill="#C8EEF7"/>
<path transform="translate(1456,1098)" d="m0 0h4v3l2 1h-2l2 6 3 1v5l-6-2v2l4 2 8 2 7-2v2h4l5 9v2l-3 1-2-3-7-1 2-2-3-1v2l-4 2-2-1v2l-4-1-2 3-1-7h-3l-1 2-4-4 1-5-2-2-3 2 1-4-2-1 2-3-2-1 6-1 2-2 1 3 2-6-4 1z" fill="#AAE5F4"/>
<path transform="translate(920,1083)" d="m0 0 9 1h3l1 3v7l-2 3v3l-3 1-2-2v-1l-2-1-1-5-2 4h2v3l2 1-4 1-2-1 3 4h-9-2l-4 1-2-3 1-2-2-1v-14l3 2 1 1h2v2l2 1-1 7h2l1-6-1-4 4-2 1 2h4z" fill="#D3F1F9"/>
<path transform="translate(1213,1101)" d="m0 0 5 1 4 3h2l1 5-3 1 5 2 3 4-1 1 2 2-5 4h-3l-5-3v2l2 1-3 1h-3v-2h-5v-2l-4 1 2-6-2-3 7-1v-3l3-1-5-2v2h-3v-4z" fill="#D1F1F9"/>
<path transform="translate(729,1096)" d="m0 0v3l4 2 2 3-3 9-5 4-7 1-8-2-4-4-1-7h3l1 1 1-7 4 5 3 1-1-3h4l4 3 2-2-1-5z" fill="#C2ECF7"/>
<path transform="translate(177,1105)" d="m0 0 4 2 5-1 1 3v3l4 3-1-3 5-1v3l2 3-2 3-5 3-2 5 4 4-5-1-2-1v-3h2l-1-3h-4l1-5h-3l-1 3 2 1v3h-3l-2 4h-4v-5l2-1v-5l-3-3 1-6 5-1z" fill="#D4F1F9"/>
<path transform="translate(1549,1103)" d="m0 0 7 6 1 3 3 1 7 8 5 5v3l-4 1-3 3h-3l2-5-4-1-1 4h2v4h-3v-2l-2-1 1-5v-2l-2-1-1 1-5-3 1-6-2-2-3 2 1-4-2-1 2-3-2-1h6z" fill="#D2F1F9"/>
<path transform="translate(866,1078)" d="m0 0 5 1 3 3v2l3 1v22l-3 1v2l-4 1-2-2h3l1-4v-2l-1-3h2l-1-6-3 1-3 5h-3-2l-1-17 2-3 3-1z" fill="#D8F3F9"/>
<path transform="translate(269,1104)" d="m0 0 2 2 4-1 4 2 3-1 1 3-5 3-1 2 3-1 2-2 3 3v2l6-2 6 2 3-4 3 4v2h-6v2h2v2l-5 5-1-5-1 2-2-1-1-1-1 5-2-2-2 3-3-1h2l-1-1-1-2h-3l1-5h-3l-1 3-1-3-2 1-1-7h-2l-1-3 5-1-4-2z" fill="#B6E9F5"/>
<path transform="translate(975,1082)" d="m0 0 2 1 2 3v19l-5-1v3l-4 1v2l-4 1-2-1-1 3v-2h-4l1-11h4v3l2-6-2-2 6-5-2-2 3-2v-2l3 1 1 3z" fill="#DDF4FA"/>
<path transform="translate(825,1096)" d="m0 0 2 3 1-2 3 2h3l1 6-3 8-5 4-10 1-6-3-2-3h3l4-1 5-2h3l-4-1-4 1-3-2 1-5h4l6 1-1-5z" fill="#B4E8F5"/>
<path transform="translate(461,1104)" d="m0 0 1 2 5-1 4 2 2-2 4 5-1 2 7-1 2-1v2h2v2l5 1 3 1v2h-3l-1 4-5 1-3-1-2-4 1-1h-7l-3 1-1 3v-2h-3v2l-2-1-2-3-1-2 5-1-1-5-6-2zm22 11m8-3 2 2-3-1z" fill="#BBEAF6"/>
<path transform="translate(659,1094)" d="m0 0h3v2l5-1-2 4h-6l6 1 2 3 1 5 1 4 2 2-5 3h-6l-2 1-2-4v-3l-4-1 3-1-2-2-1-5 1-3 6-3z" fill="#B1E7F5"/>
<path transform="translate(541,1101)" d="m0 0 5 1 2 1v2l-5-1v5l-1 1 4 2-3 1-1 2-4 1-1 5-2-1v-4l-7 2-1-4 1-2-4-2 3-2-1-6 4 2 10-2z" fill="#C3ECF7"/>
<path transform="translate(1007,1085)" d="m0 0 2 1-1 2 5-2 1 2 1-1 2 2v4h3l-4 5v4l2 2h-3v4l4 1-1 2-5-2 1 3h-4v2h-2l2-6 3-2-1-3-3 1-3-2v-16z" fill="#DAF3F9"/>
<path transform="translate(1348,1112)" d="m0 0 7 1 1 2-2 1-1 4h2v2l-5 5-1-5-1 2-2-1-1-1-1 5-2-2h-3l-1 1-1-2h-3l1-5h-3l-1 3-2-4-2-1v-2h12l4 1 1-2 5 1z" fill="#C2ECF7"/>
<path transform="translate(1252,1110)" d="m0 0 1 2 5 2 4 2 1 2h-10v2l4-1 2 1v2l-4 3-2-3-2 2-2-3-4 3h-3l-1 2v-2h-3l1-2v-3h-3v2l-2-1-1-3 5-2h6v-2h8zm7 2 2 2-3-1z" fill="#D2F1F9"/>
<path transform="translate(1192,1099)" d="m0 0 4 4 2 1v-2l8 4-2 5h-2l2 6-4 1-1-5-3 1-2-2v3 3l-5-1-2 1-2-5 2-2 1-4 4-2-1-4zm3 5 1 2zm-11 10 1 3-3 2v-3h2z" fill="#C5EDF7"/>
<path transform="translate(211,1115)" d="m0 0 8 1 4 2 7-2v2h6l1 6 2 5-3 1-2-3-7-1 2-2-3-1v2l-4 2-2-2h-5l-2-5-4 1-1-3h3z" fill="#AAE5F4"/>
<path transform="translate(824,1083)" d="m0 0 8 1 3 2v15l-5-1-2-2 1 1-3 1-1-3-1 5 2 2-8-1-1-2 3-1 2 1-2-6 2-2v3h2v-4l-3-1 3-2 1-3h-3l1-2z" fill="#DCF4FA"/>
<path transform="translate(133,1113)" d="m0 0 2 1-1 4 5 2v2l5-1 1 1 2-3-1 5-1 3h-2v2l-3 1-2-3-7-1-4 1v3l-1 3h-4l1-4-1-2 3-5 7-7z" fill="#D1F1F9"/>
<path transform="translate(1017,1096)" d="m0 0v3l-1 2 4-1 5 1 3 2v2l-3 1-2-1v6l-1 3-6-2-1 2-1 1h-8v-13l6 1 2 4-4 3-2 4h2v-2l3-1v-2l5 1-3-2 1-5-1-5z" fill="#9AE0F2"/>
<path transform="translate(252,1106)" d="m0 0 1 4-1 7-1 2h2v-2l3 1v2l8 1 1 4h-3v2h-4l-1-2h-3v2l-8-1 1-2 2-3-4 1 1-4-4-4v-2l9-1z" fill="#D5F2F9"/>
<path transform="translate(1110,1100)" d="m0 0 3 2 5-1 1 4-3 8-5 4-7 1-6-1 3-3h2l3-6 3-2-1-3z" fill="#F3FAFC"/>
<path transform="translate(920,1083)" d="m0 0 9 1h3l1 3v7l-2 3v3l-3 1-2-2v-1l-2-1-1-5-3 3v-3l-3 1-1 2-3-1v-3l1-4 3-1 1 2h4z" fill="#D8F2F9"/>
<path transform="translate(1312,1104)" d="m0 0 10 1v2l2 1v2l9-1 1 4-6 1-4-1-1 3-3-1-1 3-2-4-1 3-3-1h-1l-3-4-1-4z" fill="#E1F5FA"/>
<path transform="translate(628,1086)" d="m0 0 2 2h3l-2 4 5 1-4 5v4l2 2h-3l-1 3-8-5v-12h3v-2z" fill="#D9F3F9"/>
<path transform="translate(430,1102)" d="m0 0 8 4-2 5h-2l2 6-5 1-2 1-1 6-3 1-4-1-3-6 4-3 4 1-2-4h4l2-1-2-2 4-4z" fill="#BAEAF6"/>
<path transform="translate(1325,1104)" d="m0 0 2 2 4-1 4 2 2-2 2 4-2 2 4 2-1 3-13-1 5 1-2 2 1 2-1 3 3 1v2h-4-2v-2h-4l-2-1 2-10 2-1 7 2 1-5-7-1z" fill="#AAE5F4"/>
<path transform="translate(1029,1104)" d="m0 0 6 2v2l2 1-1 2 4 1-4 2v1h-22l-1-2 7-1h1l2-7z" fill="#BAEAF6"/>
<path transform="translate(1096,1099)" d="m0 0 4 5-3 1v2h4v-2h2l-1-3 4 2 2-1 2 4-4 3-3 6-2-1-5 1-4-5-1-6h3l1 1z" fill="#CBEFF8"/>
<path transform="translate(304,1098)" d="m0 0h4v3l2 1h-2l2 6 3 1v5l-6-2 1 6-4 1-4-5-4 3-3-2 1-3v2h3l1-2-2-1 2-3-2-1 6-1 2-2 1 3 2-6h-3l-1 2z" fill="#A4E3F3"/>
<path transform="translate(1063,1098)" d="m0 0h2l1 16-3-1-3-3-1 3v-2l-7 1-2-7v-2h2l1-4 1 1h5v2l3 1-1-3z" fill="#D7F2F9"/>
<path transform="translate(1500,1106)" d="m0 0 1 3-1 11 4-1 5 2 1 3-5 1h-3v2l-8-1 1-2 2-3-4 1 1-7-4-1v-2l9-1z" fill="#D3F1F9"/>
<path transform="translate(1456,1098)" d="m0 0h4v3l2 1h-2l2 6 3 1v5l-6-2 1 6h-5l-3-4-3 2 1-4-2-1 2-3-2-1 6-1 2-2 1 3 2-6-4 1z" fill="#A6E4F4"/>
<path transform="translate(775,1098)" d="m0 0h2l-1 4 2 4h-2l-1 3h-3l-1 4-2-2-5 1-2-5v-6l3-2h3l4 1v3l1-4z" fill="#9EE2F3"/>
<path transform="translate(729,1096)" d="m0 0v3l4 2 2 3-3 9-4 3 1-5 1-2-6-1-2 2-1 2-5-1 2-1-1-5h2l-1-3h4l4 3 2-2-1-5z" fill="#A6E4F4"/>
<path transform="translate(811,1096)" d="m0 0 4 1v5 3h-2l3 3 6-1 3 2-2 1-2-1-1 2-4 1-5 1-3-1-2-7v-6h2z" fill="#B8E9F6"/>
<path transform="translate(1551,1118)" d="m0 0 3 2h3l2 3 6-1 5 2 2 2v3l-4 1-3 3h-3l2-5-4-1-1 4h2v4h-3v-2l-2-1 1-5v-2l-2-1-1 1-5-3z" fill="#F6FBFD"/>
<path transform="translate(326,1110)" d="m0 0 4 1 3 2 3-1 1 2 1-2h5l-2 1 3 4h-2v2h-2v5l-5 3-2-5h-2l1-3-3-1-3-4zm7 8m2 3 1 2z" fill="#BFEBF6"/>
<path transform="translate(269,1104)" d="m0 0 2 2 4-1 4 2 3-1 1 3-5 3-2 2 7 1-1 3h-2l2 4-3-1v-2h-3l-1 3-1-3-2 1-1-7h-2l-1-3 5-1-4-2z" fill="#EAF8FB"/>
<path transform="translate(208,1098)" d="m0 0h4v3l2 1h-2l2 6 3 1v5l-6-2-1 3-4 1-2-2-3 2 1-4-2-1 2-3-2-1 6-1 2-2 1 3 2-6-4 1z" fill="#A1E2F3"/>
<path transform="translate(728,1083)" d="m0 0 4 1 1 1 2-2v18l-3 1v-2l-3 1v-3-3l-3 1-1-7h2l1-2-1-1z" fill="#DAF3FA"/>
<path transform="translate(1421,1104)" d="m0 0 2 2 4-1 4 2 1 7h-4l7 1-1 3h-2l2 4-3-1v-2h-3l-1 3-1-3-2 1-1-7h-2l-1-3 5-1-4-2z" fill="#E7F7FB"/>
<path transform="translate(1529,1111)" d="m0 0 3 1 3 3-1-3 5-1v3l2 3-1 3-6 3-2 5 2 2h6v2h-7l-4-2v-3h2l-1-5-2-4 3-3h-8l2-3v2l3-1z" fill="#BFEBF6"/>
<path transform="translate(640,1104)" d="m0 0 2 1 5-1 4 2v2l2 1-1 2h4v2h-4l-2 3-3-3h-1l-4 2-1-1-2 2-2-4 2-5z" fill="#C0ECF7"/>
<path transform="translate(543,1104)" d="m0 0 11 1-2 1 1 4-3 1 5 2v3l-2-1-2 3h-2l-2 3-2-2h2l-2-5-2 2-1-3v-2l-2-3h2z" fill="#E0F5FA"/>
<path transform="translate(185,1111)" d="m0 0 3 1 3 3-1-3 5-1v3l2 3-2 3-5 3-2 5 4 4-5-1-2-1v-3h2l-1-7h-2v-2l3-3h-8l2-3v2l3-1z" fill="#B8E9F6"/>
<path transform="translate(325,1113)" d="m0 0 4 3v2l4 1-2 1v2l3-1 1 2v6l-3 1-1-2 1-2h-9l2-1-3-5v-2l2-1v-3z" fill="#B9E9F6"/>
<path transform="translate(484,1110)" d="m0 0 1 2h2v2l5 1 3 1v2h-3l-1 4-5 1-3-1-2-4 1-1h-5l-1-4 6-1 2 1zm-1 5m8-3 2 2-3-1z" fill="#CEF0F8"/>
<path transform="translate(1309,1101)" d="m0 0 5 1 2 1v2h-4l-2 3v3 6l-1 2h-2l1-3h-2l-1 5-4 1 3-6h-2l-1-3h2l1-2h3l-2-1v-2h-2v-4z" fill="#CAEFF8"/>
<path transform="translate(541,1101)" d="m0 0 5 1 2 1v2l-5-1v5l-1 1 4 2-3 1-1 2-4 1-1 5-2-1v-4h-3l-2-4 3-3 5 1 2-4 2-2-4-1z" fill="#B5E8F5"/>
<path transform="translate(452,1105)" d="m0 0h4v2l5 1v1l5 1-1 3h-7l-2-1-2 7h-3l-4-1 1-4h2v3h2l-1-5 1-3-3 1 2-4z" fill="#C6EDF7"/>
<path transform="translate(1229,1104)" d="m0 0 1 2 5-1 4 2 2-2 4 5-1 2 7-1-4 3-4 2h-7l-5 1v-2l5-1-1-5-6-2z" fill="#B8E9F6"/>
<path transform="translate(1213,1101)" d="m0 0 5 1 4 3h2l-2 5-4 2-5-1-1-3h3l-5-2v2h-3v-4z" fill="#C1ECF7"/>
<path transform="translate(350,1114)" d="m0 0 4 1-1 4 3-1 2 1-1 3-3-1v2l4 1v3l-5-2h-3v-2l-4 2-1 2-3-1 1-2 3-8h3l-2 3h2z" fill="#B2E7F5"/>
<path transform="translate(819,1109)" d="m0 0 5 1 4 6-7 2-7-1-5-5h3l4-1z" fill="#A5E4F4"/>
<path transform="translate(917,1092)" d="m0 0h3l1 3 2 1v3l2 1-4 1-2-1 3 4h-9l-2-2 1-4 2-3h2z" fill="#A8E5F4"/>
<path transform="translate(1252,1110)" d="m0 0 1 2 5 2 4 2 1 2h-10v2l4-1 2 1v2l-4 3-2-3-2 2-1-4-3-3 1-3 4-1zm7 2 2 2-3-1z" fill="#C9EEF8"/>
<path transform="translate(712,1099)" d="m0 0 4 5 1 4h-3l3 7-5 1-4-4-1-7h3l1 1z" fill="#ACE6F4"/>
<path transform="translate(134,1119)" d="m0 0 5 1v2l5-1 1 1 2-3-1 5-1 3h-2v2l-3 1-2-3-7-1v-3l3-1z" fill="#F1FAFC"/>
<path transform="translate(572,1099)" d="m0 0 2 4 4 2 5 2v2h-3l-1 4v-2l-7 1-2-5-1-3-2-1 4-1z" fill="#D3F1F9"/>
<path transform="translate(229,1117)" d="m0 0 7 1 1 6 2 5-3 1-2-3-7-1 2-2-3-2 1-2-5 1 2-2z" fill="#CDEFF8"/>
<path transform="translate(1547,1112)" d="m0 0 4 4v2l-3 2-3 3 2 2h-4l-1 2-1-4-3 1v-4h2l-1-5 4-1 2 2z" fill="#F6FBFD"/>
<path transform="translate(967,1098)" d="m0 0h2v2h-2l1 5-1 4h-3l-1 4v-2h-4l1-11h4v3l1-4z" fill="#B8E9F6"/>
<path transform="translate(1191,1106)" d="m0 0 6 1-3 1-1 6 2 4h-3-4l-3-4 2-3 1-4zm-7 8 1 3-3 2v-3h2z" fill="#C4EDF7"/>
<path transform="translate(1477,1117)" d="m0 0 5 1 5 9v2l-3 1-2-3-7-1 2-2-3-2 1-2-5 1 2-2z" fill="#CFF0F8"/>
<path transform="translate(519,1106)" d="m0 0 5 1-2 1-1 6 2 4h-3-4l-3-4 2-3 1-4zm-7 8 1 3-3 2v-3h2z" fill="#C5EDF7"/>
<path transform="translate(628,1107)" d="m0 0 7 2-1 2 4 4-4 1-2 2-1-2-4 1-1-3h-2l2-6z" fill="#CFF0F8"/>
<path transform="translate(1043,1094)" d="m0 0h3v2l5-1-2 4h-6l6 1v4l-2 3h-2l-1-2h-2v-2h-3l-1-3 1-2 4-2z" fill="#D6F2F9"/>
<path transform="translate(659,1094)" d="m0 0h3v2l5-1-2 4h-6l6 1v4l-2 3h-2l-1-2h-2v-2h-3l-1-3 1-2 4-2z" fill="#D6F2F9"/>
<path transform="translate(1289,1112)" d="m0 0 4 1 3-1-1 4 2 1 5 1-2 1v5l-4 1-1 2-2-5-2-1 1-5-4-2zm4 6m2 3 1 2z" fill="#C3ECF7"/>
<path transform="translate(1549,1103)" d="m0 0 7 6-2 1-2-1v2l3 1-1 3-4 1-2-2-3 2 1-4-2-1 2-3-2-1h6z" fill="#A3E3F3"/>
<path transform="translate(777,1091)" d="m0 0 2 1 1 22-2-3-6-1 3-1 1-4 2 1-3-5 2-3-3-1-2-2z" fill="#D1F0F8"/>
<path transform="translate(975,1082)" d="m0 0 2 1 2 3v6l-5 2 1 2h-3v-3l-4-1 2-2-2-2 3-2v-2l3 1 1 3z" fill="#D8F2F9"/>
<path transform="translate(456,1112)" d="m0 0 4 2 2 3-1 1 2 2-5 4h-3l-6-4 3-2h2v-5z" fill="#DDF4FA"/>
<path transform="translate(1404,1106)" d="m0 0 1 4-1 5-2 2-1 4-4 1 2-4h-2l-1-3-2-1v-2l3-1v-2l6 2z" fill="#CAEEF8"/>
<path transform="translate(1348,1112)" d="m0 0 7 1 1 2-2 1-1 4h2v2l-5 5-1-5-1 2-2-1v-7l3-1z" fill="#99E0F2"/>
<path transform="translate(872,1093)" d="m0 0h4l1 7v7l-3 1v2l-4 1-2-2h3l1-4v-2l-1-3h2z" fill="#EDF9FC"/>
<path transform="translate(1451,1112)" d="m0 0 4 4v2h-6v2h2v2l-2 1 1 2h-3l-1 2-1-5-1 2-2-1 2-5-2-1 3-1h3l3-2z" fill="#F9FCFD"/>
<path transform="translate(1325,1104)" d="m0 0 2 2 4-1 4 2 2-2 2 4-2 2 4 2-1 3-9-1 2-4v-2l-7-1z" fill="#9EE2F3"/>
<path transform="translate(1117,1101)" d="m0 0 2 1-2 10h-5l-2 4-4-2v-2l3-1v-2l5 1v-2h-3v-4z" fill="#9EE2F3"/>
<path transform="translate(1315,1118)" d="m0 0 3 1 3 5-4 1h-3-4v-2l-4 2-1 2-3-1 1-2 2-3 7-1z" fill="#F8FCFD"/>
<path transform="translate(445,1101)" d="m0 0 5 1 2 1v2h-4l-1 3-2 1 1 5-3-1-3-2 2-1v-2h-3v-4z" fill="#A6E4F4"/>
<path transform="translate(1408,1120)" d="m0 0 2 1v2l3 1 3-3 1 4h-3v2l-5-2h-3v2l-8-1 1-2 2-3z" fill="#EDF9FC"/>
<path transform="translate(1063,1098)" d="m0 0h2l1 16-3-1-1-2-5-1 2-4v-3h3l-1-3z" fill="#C0ECF7"/>
<path transform="translate(299,1112)" d="m0 0 4 4v2h-6v2h2v2l-5 5-1-5-1 2-2-1 2-5-2-1h3v3l2-1-2-4 4 1z" fill="#FAFCFD"/>
<path transform="translate(729,1096)" d="m0 0v3l4 2 2 3-3 9-4 3 1-5 1-4h2v-2h-2v-2l-3-1 1-5z" fill="#D1F0F8"/>
<path transform="translate(326,1110)" d="m0 0 4 1 3 2 3-1 1 2h3v3l-8 2-3-1-3-4z" fill="#D8F3F9"/>
<path transform="translate(1017,1096)" d="m0 0v3l-1 2 4-1 5 1 3 2v2l-8 2h-3l1-4-3-1 1-5z" fill="#ACE6F4"/>
<path transform="translate(864,1101)" d="m0 0 3 1 1 6-3 1v2l-4 1v2h-2l1-10z" fill="#C0ECF7"/>
<path transform="translate(430,1102)" d="m0 0 8 4-2 5h-2v5h-4l-1-3 1-1-2-2 4-4z" fill="#B8E9F6"/>
<path transform="translate(594,1099)" d="m0 0h1v41h-1l-1-11v-20l1-2-2-1-2-4 4-1z" fill="#FEFEFE"/>
<path transform="translate(365,1104)" d="m0 0 2 2 4-1 4 2 2-2 3 4v2h-3l-1 3h-2l-1-5-7-1z" fill="#B8E9F6"/>
<path transform="translate(448,1104)" d="m0 0 4 2-2 3h2v8h-2v-3h-2l-1 2-3-7 3-1z" fill="#F6FBFD"/>
<path transform="translate(1006,1102)" d="m0 0 6 1 2 4-4 3-2 5h-2z" fill="#A7E4F4"/>
<path transform="translate(1224,1115)" d="m0 0 6 1-1 2 2 2-5 4h-3l-3-4 1-3z" fill="#C6EDF7"/>
<path transform="translate(1403,1115)" d="m0 0 1 2-1 2h2v-2l7 1 2 1v5h-3l-3-3-5 1-2-1 1-5z" fill="#AEE6F5"/>
<path transform="translate(1192,1099)" d="m0 0 4 4h3l1 5-2 3 1 2-3 1-2-3-1-4-2-6zm3 5 1 2z" fill="#DDF4FA"/>
<path transform="translate(815,1085)" d="m0 0 7 2-2 1 3 1 1-2v3l-2 1 2 1v4h-4-2l-1-5-2-3z" fill="#AEE6F5"/>
<path transform="translate(1031,1108)" d="m0 0h2l-1 3h-2l-1 3-2 1h-13l-1-2 7-1h3 3v-3z" fill="#EFF9FC"/>
<path transform="translate(1014,1100)" d="m0 0 4 4h-3v4l4 1-1 2-5-2 1 3h-4v2h-2l2-6 3-2-1-3z" fill="#F1FAFC"/>
<path transform="translate(207,1116)" d="m0 0 3 1h-2l1 4 4-1 2 4h4l1 4-4-1-2 3-1-7h-3l-1 2-4-4z" fill="#E8F7FB"/>
<path transform="translate(1212,1106)" d="m0 0h3v2l-2 1 1 5-6-2-1 2 1 4-4-2-2-4 3-1v-2l5 1z" fill="#9AE0F2"/>
<path transform="translate(1102,1102)" d="m0 0 4 2 2-1 2 4-4 3-3 6-2-3 1-1-2-2 3-3h-2v-2h2z" fill="#9EE2F3"/>
<path transform="translate(552,1107)" d="m0 0 5 1v1h7l1 3-2 2-13-1v-2l2-1z" fill="#C3ECF7"/>
<path transform="translate(672,1102)" d="m0 0h3l1 6-3 2h3l-1 3v-2l-7 1 2-8h2z" fill="#D9F3F9"/>
<path transform="translate(1188,1104)" d="m0 0 2 1-1 5v2l-6 2h-3l1-4h2v-3z" fill="#EAF8FB"/>
<path transform="translate(516,1104)" d="m0 0 2 1-1 5v2l-6 2h-3l1-4h2v-3z" fill="#EAF8FB"/>
<path transform="translate(256,1120)" d="m0 0 8 1 1 4h-3v2h-4l-1-2h-3v-4z" fill="#DCF4FA"/>
<path transform="translate(533,1103)" d="m0 0 9 1-1 3-3 4-6-2v-4z" fill="#DAF3FA"/>
<path transform="translate(815,1101)" d="m0 0 7 2v4l-6 2-3-2 1-5z" fill="#9FE2F3"/>
<path transform="translate(622,1102)" d="m0 0 4 2 2-1 2 4-4 3-3 3h-1z" fill="#AAE5F4"/>
<path transform="translate(1455,1118)" d="m0 0 2 1v2l4-1 2 4h4l1 4-4-1-2 3-1-7h-3l-1 2-4-4z" fill="#F0F9FC"/>
<path transform="translate(1112,1112)" d="m0 0 4 1-5 4-7 1-6-1 3-3h6l3 2-1-3z" fill="#F0F9FC"/>
<path transform="translate(241,1117)" d="m0 0 3 1-2 6-2 3h-2l-2-5 1-3z" fill="#A9E5F4"/>
<path transform="translate(1536,1111)" d="m0 0 3 1v3l2 2-1 3-6 2 1-5h-2v-2h2l-1-3z" fill="#D5F2F9"/>
<path transform="translate(562,1098)" d="m0 0m-3 1h3v2l6 1 1 3-2 3h-3v-3l-6 1 1-3-1-3z" fill="#FEFEFE"/>
<path transform="translate(1503,1119)" d="m0 0 6 2 1 3-10 2-3-2 3-1-1-2z" fill="#BCEAF6"/>
<path transform="translate(352,1120)" d="m0 0 2 1v2l4 1v3l-5-2h-3v-2l-4 2-1 2-3-1 1-2 2-3z" fill="#F9FCFD"/>
<path transform="translate(1516,1117)" d="m0 0h4v3l2 1h-2l1 3-4 1-4-2 2-5z" fill="#D2F1F9"/>
<path transform="translate(357,1113)" d="m0 0 3 2 3 1-1 5-4 1-3-3h-2v-2h3l-1-3z" fill="#A0E2F3"/>
<path transform="translate(192,1111)" d="m0 0 3 1v2l2 3-2 3-5 2 1-5h-2v-2h2l-1-3z" fill="#D0F0F8"/>
<path transform="translate(813,1107)" d="m0 0 5 1 4-1 3 2-2 1-2-1-1 2-4 1-5 1-1-5z" fill="#DEF4FA"/>
<path transform="translate(1568,1123)" d="m0 0 4 3v3l-4 1-3 3h-3l2-6 3-1z" fill="#C2ECF7"/>
<path transform="translate(762,1103)" d="m0 0h3l2 1 1 3h2l-1-3 2-1 1 5-3 3-5 1-2-5z" fill="#F9FCFD"/>
<path transform="translate(631,1104)" d="m0 0 3 1-1 2 6-1v3l-1 5-3-1-3-2 2-2-4-2z" fill="#99E0F2"/>
<path transform="translate(821,1093)" d="m0 0 1 3h2l1-3v2l3 1-1 3 2 1-4-1-1-1v4l2 2-8-1-1-2 3-1 2 1-2-6z" fill="#FEFEFE"/>
<path transform="translate(1555,1115)" d="m0 0h2v2h2l2 2 5 1 2 3h-7l-3 1z" fill="#99E0F2"/>
<path transform="translate(1425,1115)" d="m0 0h10l-1 3h-2l2 4-3-1v-2h-3l-1 3-1-3z" fill="#F1FAFC"/>
<path transform="translate(1327,1115)" d="m0 0h12l-1 3h-2l-1 3v-2h-3l-1 3-2-4-2-1z" fill="#EEF9FC"/>
<path transform="translate(367,1115)" d="m0 0h12l-1 3h-2l-1 3v-2h-3l-1 3-2-4-2-1z" fill="#EEF9FC"/>
<path transform="translate(269,1104)" d="m0 0 2 2 4-1 4 2 3-1 1 3-5 3-4-3-5-2z" fill="#9EE2F3"/>
<path transform="translate(1305,1114)" d="m0 0 4 2-2 3h2l1-5 2 2 1 4-3 2-5-1z" fill="#9CE1F2"/>
<path transform="translate(342,1111)" d="m0 0 6 1-1 4-2 5-4 1 1-6v-4z" fill="#F5FBFD"/>
<path transform="translate(918,1096)" d="m0 0h5v3l2 1-4 1-2-1 3 4h-6l-3-3h5z" fill="#E8F7FB"/>
<path transform="translate(1413,1113)" d="m0 0 3 4h3l-2 5h-3l-3-3h-2l1-3 2 1-1-3z" fill="#9CE1F2"/>
<path transform="translate(261,1113)" d="m0 0 3 4h3l-2 5h-3l-3-3h-2l1-3 2 1-1-3z" fill="#9CE1F2"/>
<path transform="translate(1390,1117)" d="m0 0h6l-2 7-1 3h-2l-2-8zm1 4 1 2z" fill="#B5E8F5"/>
<path transform="translate(1180,1103)" d="m0 0 7 1-2 3h-2v3l-4 1-1-3z" fill="#AAE5F4"/>
<path transform="translate(136,1119)" d="m0 0 3 1v2l5-1 1 1 2-3-1 5-2 2v-2l-3 1h-3l-3-2z" fill="#99E0F2"/>
<path transform="translate(1147,1109)" d="m0 0 2 1-1 2 4 2 3 2-9 1-2-1 1-4h2z" fill="#C7EEF7"/>
<path transform="translate(456,1107)" d="m0 0 5 1v1l5 1-1 3h-7l-2-1-1 2-1-3 2-1z" fill="#B3E8F5"/>
<path transform="translate(776,1100)" d="m0 0 3 1 1 13-2-3-6-1 3-1 1-4 2 1-3-5z" fill="#EFF9FC"/>
<path transform="translate(1117,1093)" d="m0 0 2 2v7l-7-1 2-6h2z" fill="#F2FAFC"/>
<path transform="translate(1223,1107)" d="m0 0 2 1-1 3h-2l-2 6h-2v-3h-2l-1 2-1-4h4l1-2 3-1z" fill="#FBFDFD"/>
<path transform="translate(712,1097)" d="m0 0m-2 1h2v8h-3-3v-7l2 1z" fill="#F5FBFD"/>
<path transform="translate(1561,1122)" d="m0 0 7 1-1 4-5 1-1-3h-2v-2z" fill="#E2F6FA"/>
<path transform="translate(547,1112)" d="m0 0 2 1 5-1 2 3h-3l-2 3-3-1zm0 5 1 4-3-2h2z" fill="#D6F2F9"/>
<path transform="translate(1224,1107)" d="m0 0 5 1v1l5 1-1 3h-11v-2l2-1z" fill="#AFE6F5"/>
<path transform="translate(1350,1116)" d="m0 0 3 1v3h2v2l-5 5-1-5-1 2-2-1 2-4 4 1v-2h-2z" fill="#F7FCFD"/>
<path transform="translate(288,1114)" d="m0 0 5 1 1 3 2 1-3 1v-3l-1 3-3 1-2-2z" fill="#B4E8F5"/>
<path transform="translate(1096,1097)" d="m0 0m-3 1h3v8h-3l-3-2 1-4h2z" fill="#F1FAFC"/>
<path transform="translate(818,1081)" d="m0 0 4 2v3h3l-1 2-4 2v-3l-5-2 2-1z" fill="#FEFEFE"/>
<path transform="translate(171,1118)" d="m0 0 4 1v5l-4 1-2-4z" fill="#EDF9FC"/>
<path transform="translate(451,1112)" d="m0 0 3 1 1 5-3 2-5-2 1-4h2v3h2z" fill="#A4E3F3"/>
<path transform="translate(425,1112)" d="m0 0 7 2v2h2l1-2 1 3-8 2v-3l-4-2z" fill="#D6F2F9"/>
<path transform="translate(971,1084)" d="m0 0 3 1 1 5-2 3h-5l2-3-2-2 3-2z" fill="#97DFF2"/>
<path transform="translate(1372,1122)" d="m0 0 6 1v2l-4 2-2-1v2l-5-1v-2z" fill="#F0FAFC"/>
<path transform="translate(564,1115)" d="m0 0h7l-1 3h-2l-1 2-3-1-1 2-2-4h3z" fill="#E9F8FB"/>
<path transform="translate(647,1108)" d="m0 0h2l-1 3h-2l-1 3-3 1-1-1-2 2-1-3 4-1v-3z" fill="#F7FCFD"/>
<path transform="translate(1096,1099)" d="m0 0 4 5-4 2-1-5zm-4 5 2 1 1 3-2 2-2-1z" fill="#9EE2F3"/>
<path transform="translate(675,1103)" d="m0 0h3l2 10-2-2-5-1 2-4z" fill="#B2E8F5"/>
<path transform="translate(1315,1118)" d="m0 0 3 1 3 5-4 1-4-4v-2z" fill="#D3F1F9"/>
<path transform="translate(1509,1113)" d="m0 0 3 4h3v2l-7 1-3-1 1-3 2 1-1-3z" fill="#A2E3F3"/>
<path transform="translate(165,1113)" d="m0 0 3 4h3v2l-7 1-3-1 1-3 2 1-1-3z" fill="#A2E3F3"/>
<path transform="translate(724,1107)" d="m0 0 7 2-1 2-5-2-1 3h-2v2h-2l2-6z" fill="#EFF9FC"/>
<path transform="translate(628,1107)" d="m0 0 7 2-1 2-5-2-1 3h-2v2h-2l2-6z" fill="#EFF9FC"/>
<path transform="translate(1421,1104)" d="m0 0 2 2 4-1 4 2 1 4h-3v-2l-7-1z" fill="#9BE1F2"/>
<path transform="translate(508,1103)" d="m0 0 7 1-2 3h-2v3l-4 1-1-3h3z" fill="#9BE1F2"/>
<path transform="translate(1007,1085)" d="m0 0 2 1-1 2 5-2 1 2h-2l1 3h-4-3v-5z" fill="#BAEAF6"/>
<path transform="translate(123,1124)" d="m0 0 4 2 1 3-2 4h-4l1-4-1-2z" fill="#F6FBFD"/>
<path transform="translate(1323,1116)" d="m0 0 3 1-1 1 2 2v4h-4l-2-1z" fill="#EFF9FC"/>
<path transform="translate(363,1116)" d="m0 0 3 1-1 1 2 2v4h-4l-2-1z" fill="#EFF9FC"/>
<path transform="translate(133,1113)" d="m0 0 2 1-1 4 2 1h-2v3l-5-1 1-4z" fill="#A2E3F3"/>
<path transform="translate(448,1120)" d="m0 0 2 1v2l2 1-3 1h-3v-2l-5 1v-3z" fill="#F6FBFD"/>
<path transform="translate(251,1115)" d="m0 0 1 2-1 2h2v-2l3 1v3l-5 1-2-2 1-4z" fill="#A3E3F3"/>
<path transform="translate(1440,1114)" d="m0 0 5 1v3l-3 3-3-2z" fill="#B9EAF6"/>
<path transform="translate(1243,1110)" d="m0 0 1 2 7-1-4 3-4 2-4-2z" fill="#94DFF2"/>
<path transform="translate(525,1105)" d="m0 0 3 1-2 5 1 2-3 1-2-3v-3h2z" fill="#F2FAFC"/>
<path transform="translate(1229,1104)" d="m0 0 1 2 5-1 5 3-3 2-8-3z" fill="#9BE1F2"/>
<path transform="translate(860,1104)" d="m0 0 4 3 2 1-1 3-4 1v2h-2z" fill="#F6FBFD"/>
<path transform="translate(461,1104)" d="m0 0 1 2 5-1 5 3-3 2-8-3z" fill="#9BE1F2"/>
<path transform="translate(1117,1101)" d="m0 0 2 1-1 4-4 1-3 1v-4z" fill="#B6E8F5"/>
<path transform="translate(412,1103)" d="m0 0 7 1-2 3h-2v3l-3 1v-2l-2-1h3z" fill="#97E0F2"/>
<path transform="translate(764,1099)" d="m0 0h3l4 1v2l-6 1-1 4-2-6z" fill="#A6E4F4"/>
<path transform="translate(729,1096)" d="m0 0v3l4 2 2 3-2 1-6-3 1-5z" fill="#9BE1F2"/>
<path transform="translate(711,1092)" d="m0 0 2 2-2 2 1 2-5 4-1-5z" fill="#9BE1F2"/>
<path transform="translate(922,1091)" d="m0 0 3 2v3h3l-2 5-1-2h-2v-3h-2z" fill="#9FE2F3"/>
<path transform="translate(904,1085)" d="m0 0 3 2 1 1h2v2l2 1-7 1-1 2z" fill="#AAE5F4"/>
<path transform="translate(489,1117)" d="m0 0 3 1-1 4-5 1-1-5z" fill="#C3ECF7"/>
<path transform="translate(974,1093)" d="m0 0h4l1 4-1 3-5-1 2-4-2-1z" fill="#E2F5FA"/>
<path transform="translate(201,1118)" d="m0 0h6v3l-2 1-1 3-4-2 3-1z" fill="#9CE1F2"/>
<path transform="translate(1419,1118)" d="m0 0 4 2-1 5-2-2h-3z" fill="#EDF9FC"/>
<path transform="translate(267,1118)" d="m0 0 4 2-1 5-2-2h-3z" fill="#EDF9FC"/>
<path transform="translate(211,1111)" d="m0 0h4l-4 8-3-2-1-2h3z" fill="#F9FCFD"/>
<path transform="translate(365,1104)" d="m0 0 2 2 4-1 5 3-3 2-8-3z" fill="#A0E2F3"/>
<path transform="translate(496,1098)" d="m0 0h4v3h2l-1 2-2 1v-3l-4 1-1-3zm2 6 2 2h-2z" fill="#A0E2F3"/>
<path transform="translate(563,1094)" d="m0 0h3l1 2 4-1-2 5-7-2z" fill="#9CE1F2"/>
<path transform="translate(467,1094)" d="m0 0h3l1 2 4-1-2 5-7-2z" fill="#9CE1F2"/>
<path transform="translate(1043,1094)" d="m0 0h3v2l5-1-2 4-7-1z" fill="#9CE1F2"/>
<path transform="translate(659,1094)" d="m0 0h3v2l5-1-2 4-7-1z" fill="#9CE1F2"/>
<path transform="translate(1164,1084)" d="m0 0 2 1v6l-1 2-4-1 1-2-2-2z" fill="#94DFF2"/>
<path transform="translate(588,1084)" d="m0 0 2 1v6l-1 2-4-1 1-2-2-2z" fill="#94DFF2"/>
</svg>
